<svg xmlns="http://www.w3.org/2000/svg" width="502.122" height="145.741" viewBox="0 0 502.122 145.741">
  <g id="Group_28" data-name="Group 28" transform="translate(-1365.729 -434.156)">
    <path id="DREAM_COME_TURE" data-name="DREAM COME TURE" d="M36.126-19.446a23.292,23.292,0,0,1-.835,6.338A17.228,17.228,0,0,1,32.77-7.764a16.619,16.619,0,0,1-4.206,4.105A19.869,19.869,0,0,1,22.672-.979,23.576,23.576,0,0,1,18.5-.216Q16.248,0,13.626,0H4.9V-38.546h8.815q2.622,0,4.869.216a23.576,23.576,0,0,1,4.177.763,20.327,20.327,0,0,1,5.891,2.65A16.194,16.194,0,0,1,32.827-30.9,16.755,16.755,0,0,1,35.3-25.683,22.777,22.777,0,0,1,36.126-19.446Zm-4.667,0a15.248,15.248,0,0,0-2.452-9.017,13.135,13.135,0,0,0-7.036-4.9,19.065,19.065,0,0,0-3.912-.749q-2.16-.2-4.875-.2H9.593V-4.235h3.591q2.715,0,4.875-.2a19.065,19.065,0,0,0,3.912-.749,12.862,12.862,0,0,0,7.036-5.042A16.042,16.042,0,0,0,31.459-19.446ZM53.152-38.517a42.106,42.106,0,0,1,5.618.288q9.363,1.815,9.363,9.91a10.484,10.484,0,0,1-3.083,7.778,11.963,11.963,0,0,1-8.124,3.313v.115L70.379,0H67.268L53.814-16.939H47.246V0H44.711V-38.517Zm12.33,10.141q0-4.321-3.284-6.079t-9.334-1.757H47.246v16.968h5.733q6.28,0,9.392-2.132T65.482-28.376ZM77.7-38.517H99.649v2.3H80.232v15.326H98.007v2.3H80.232V-2.3h20.541V0H77.7ZM105.324,0l15.758-38.517h2.478L139.376,0h-2.794L131.05-13.684H113.592L108.09,0ZM130.1-15.989l-1.469-3.716q-4.811-11.956-6.194-15.816h-.115q-1.181,3.284-3.889,9.766-.835,1.988-3.976,9.766Zm19.475-22.528L161.155-11.61,164.641-3h.115l14.865-35.521h3.947V0h-2.478V-17.8q0-8.643.4-18.351h-.23q-4.292,9.593-5.3,12.013L166,0h-2.478L153.291-24.142q-.749-1.786-5.358-12.013h-.173q.4,12.244.4,18.351V0h-2.535V-38.517Zm74.2,3.428a17.588,17.588,0,0,0-6.052,1.023,13.442,13.442,0,0,0-4.886,3.054,14.387,14.387,0,0,0-3.267,5.042,18.926,18.926,0,0,0-1.2,7.015,19.449,19.449,0,0,0,1.108,6.9,12.672,12.672,0,0,0,3.15,4.84,12.769,12.769,0,0,0,4.914,2.838,20.878,20.878,0,0,0,6.4.922q.962,0,2.041-.1t2.173-.288q1.094-.187,2.129-.432a18.162,18.162,0,0,0,1.852-.533V-.663A19.318,19.318,0,0,1,228.193.36a29.088,29.088,0,0,1-4.609.36,25.073,25.073,0,0,1-8.527-1.34,16.755,16.755,0,0,1-6.237-3.846A16.2,16.2,0,0,1,205-10.587a24.185,24.185,0,0,1-1.3-8.2,24.091,24.091,0,0,1,1.368-8.268,18.328,18.328,0,0,1,3.947-6.482,17.937,17.937,0,0,1,6.251-4.22,21.5,21.5,0,0,1,8.254-1.512q1.21,0,2.391.1t2.261.288a20.07,20.07,0,0,1,2,.447,12.51,12.51,0,0,1,1.584.547v4.148a29.856,29.856,0,0,0-3.821-.965A22.55,22.55,0,0,0,223.773-35.089Zm15.194,15.845A23.232,23.232,0,0,1,241.2-29.558a17.4,17.4,0,0,1,6.208-7.159,16.207,16.207,0,0,1,9.017-2.578,16.544,16.544,0,0,1,9.233,2.578,16.882,16.882,0,0,1,6.107,7.13,23.969,23.969,0,0,1,2.146,10.342,23.106,23.106,0,0,1-2.218,10.256,17.378,17.378,0,0,1-6.179,7.13A16.037,16.037,0,0,1,256.569.72a16.859,16.859,0,0,1-9.32-2.564,16.733,16.733,0,0,1-6.136-7.1A23.8,23.8,0,0,1,238.967-19.244Zm32.208,0a21.59,21.59,0,0,0-1.959-9.55A14.4,14.4,0,0,0,263.9-34.9a13.864,13.864,0,0,0-7.476-2.089,13.835,13.835,0,0,0-7.433,2.089,14.454,14.454,0,0,0-5.344,6.107,21.456,21.456,0,0,0-1.973,9.55,21.281,21.281,0,0,0,1.988,9.579,14.25,14.25,0,0,0,5.373,6.035,14.284,14.284,0,0,0,7.533,2.045,13.759,13.759,0,0,0,7.375-2.045,14.237,14.237,0,0,0,5.272-6.035A21.546,21.546,0,0,0,271.175-19.244Zm15.758-19.273L298.515-11.61,302-3h.115l14.865-35.521h3.947V0H318.45V-17.8q0-8.643.4-18.351h-.23q-4.292,9.593-5.3,12.013L303.354,0h-2.478L290.65-24.142q-.749-1.786-5.358-12.013h-.173q.4,12.244.4,18.351V0h-2.535V-38.517Zm44.308,0h21.952v2.3H333.776v15.326h17.775v2.3H333.776V-2.3h20.541V0H331.241ZM387.965,0h-4.7V-34.311H370.392v-4.235h30.451v4.235H387.965Zm33.821-3.457a12.962,12.962,0,0,0,3.731-.49,9.192,9.192,0,0,0,2.838-1.383,8.09,8.09,0,0,0,2.017-2.146,10.268,10.268,0,0,0,1.239-2.78,11.058,11.058,0,0,0,.4-2.117q.115-1.167.115-2.261V-38.546h4.7v23.8q0,1.354-.144,2.823a18.892,18.892,0,0,1-.461,2.737,14.646,14.646,0,0,1-1.642,3.947,11.077,11.077,0,0,1-2.852,3.14,13.43,13.43,0,0,1-4.22,2.074,19.932,19.932,0,0,1-5.776.749,20.092,20.092,0,0,1-5.56-.691,13.411,13.411,0,0,1-4.105-1.916,10.774,10.774,0,0,1-2.809-2.91,14.4,14.4,0,0,1-1.7-3.673,17.691,17.691,0,0,1-.619-3.083,28.221,28.221,0,0,1-.187-3.2v-23.8h4.7v23.911a19.648,19.648,0,0,0,.187,2.665,12.312,12.312,0,0,0,.591,2.492,8.836,8.836,0,0,0,3.356,4.408A10.768,10.768,0,0,0,421.787-3.457Zm29.385-12.5V0h-4.7V-38.546h9.985a41.8,41.8,0,0,1,4.3.187,20.306,20.306,0,0,1,3.238.591,11.511,11.511,0,0,1,6.158,3.731,10.138,10.138,0,0,1,2.129,6.583,11.017,11.017,0,0,1-.749,4.177,9.552,9.552,0,0,1-2.1,3.2,11.02,11.02,0,0,1-3.241,2.218A17.112,17.112,0,0,1,462-16.594v.115L473.412,0h-4.7L456.847-15.96Zm0-18.351v14.116h4.638q2.161,0,3.688-.144a13.6,13.6,0,0,0,2.737-.519,7.511,7.511,0,0,0,3.774-2.391,6.624,6.624,0,0,0,1.325-4.292,6.219,6.219,0,0,0-1.268-3.99,6.859,6.859,0,0,0-3.428-2.175,12.992,12.992,0,0,0-2.478-.461q-1.44-.144-3.659-.144ZM486.087-4.235H505.85V0H481.392V-38.546h23.393v4.235h-18.7v12.445H502.71v4.235H486.087Z" transform="translate(1361 495)" fill="#91d5c5"/>
    <path id="More_than_10_years_of_experience_make_your_dreams_come_true" data-name="More than 10 years of experience make your dreams come true" d="M16.768,0h-2.3V-9.062q0-1.113.137-2.725h-.039a9.409,9.409,0,0,1-.381,1.318L10,0H8.4L4.209-10.391a9.787,9.787,0,0,1-.371-1.4H3.8q.078.84.078,2.744V0H1.729V-14H5L8.682-4.678a13.792,13.792,0,0,1,.547,1.6h.049q.361-1.1.586-1.641L13.613-14h3.154Zm6.487.234a4.957,4.957,0,0,1-3.7-1.4,5.062,5.062,0,0,1-1.382-3.716,5.267,5.267,0,0,1,1.44-3.936A5.3,5.3,0,0,1,23.5-10.234a4.8,4.8,0,0,1,3.652,1.377A5.319,5.319,0,0,1,28.46-5.039a5.241,5.241,0,0,1-1.411,3.833A5.069,5.069,0,0,1,23.255.234Zm.107-8.662a2.586,2.586,0,0,0-2.1.928,3.885,3.885,0,0,0-.771,2.559,3.659,3.659,0,0,0,.781,2.476,2.624,2.624,0,0,0,2.09.9,2.49,2.49,0,0,0,2.056-.889,3.934,3.934,0,0,0,.718-2.529,3.993,3.993,0,0,0-.718-2.549A2.478,2.478,0,0,0,23.362-8.428Zm12.063.586a1.878,1.878,0,0,0-1.182-.322,2.023,2.023,0,0,0-1.68.908,4.061,4.061,0,0,0-.674,2.471V0H29.624V-10H31.89v2.061h.039a3.484,3.484,0,0,1,1.021-1.646,2.3,2.3,0,0,1,1.538-.591,1.909,1.909,0,0,1,.938.186Zm8.753,3.457H37.361a2.881,2.881,0,0,0,.854,2.139,3.179,3.179,0,0,0,2.241.752A4.942,4.942,0,0,0,43.4-2.451V-.625a6.716,6.716,0,0,1-3.613.859,4.473,4.473,0,0,1-3.462-1.362,5.449,5.449,0,0,1-1.255-3.833,5.328,5.328,0,0,1,1.382-3.8,4.52,4.52,0,0,1,3.433-1.47,3.941,3.941,0,0,1,3.174,1.318,5.474,5.474,0,0,1,1.123,3.662Zm-2.187-1.6a2.919,2.919,0,0,0-.576-1.9,1.925,1.925,0,0,0-1.562-.679,2.2,2.2,0,0,0-1.655.713,3.257,3.257,0,0,0-.835,1.865ZM54.827-.107a3.926,3.926,0,0,1-1.748.332q-2.91,0-2.91-2.793V-8.223H48.5V-10h1.67v-2.314l2.266-.645V-10h2.393v1.777H52.435v5a1.97,1.97,0,0,0,.322,1.27,1.338,1.338,0,0,0,1.074.381,1.558,1.558,0,0,0,1-.332Zm9.7.107H62.262V-5.469q0-2.969-1.982-2.969a2.073,2.073,0,0,0-1.68.859,3.421,3.421,0,0,0-.684,2.2V0H55.64V-14.8h2.275V-8.34h.039A3.578,3.578,0,0,1,61.2-10.234q3.33,0,3.33,4.072Zm9.29,0h-2.2V-1.562h-.039a3.308,3.308,0,0,1-3.037,1.8,3.2,3.2,0,0,1-2.31-.8A2.8,2.8,0,0,1,65.4-2.686q0-2.832,3.262-3.3l2.969-.42q0-2.139-2.031-2.139a4.825,4.825,0,0,0-3.223,1.23V-9.3a7.028,7.028,0,0,1,3.652-.937q3.789,0,3.789,3.73ZM71.629-4.912l-2.1.293a3.328,3.328,0,0,0-1.47.474,1.384,1.384,0,0,0-.493,1.216,1.331,1.331,0,0,0,.454,1.04,1.758,1.758,0,0,0,1.216.405,2.243,2.243,0,0,0,1.714-.728,2.58,2.58,0,0,0,.679-1.831ZM84.347,0H82.081V-5.635q0-2.8-1.982-2.8a2.164,2.164,0,0,0-1.709.776A2.88,2.88,0,0,0,77.716-5.7V0H75.441V-10h2.275v1.66h.039A3.564,3.564,0,0,1,81-10.234a3.02,3.02,0,0,1,2.49,1.06,4.758,4.758,0,0,1,.859,3.062ZM94.86-14.316V0H92.594V-11.543a7.217,7.217,0,0,1-1.323.747,10.908,10.908,0,0,1-1.616.542v-1.934q.566-.186,1.094-.391t1.04-.459q.513-.254,1.035-.566t1.079-.713Zm6.3,14.551a3.911,3.911,0,0,1-3.413-1.787,9.108,9.108,0,0,1-1.226-5.166A10.106,10.106,0,0,1,97.8-12.334a4.176,4.176,0,0,1,3.691-1.9q4.619,0,4.619,7.178a9.449,9.449,0,0,1-1.3,5.425A4.2,4.2,0,0,1,101.161.234Zm.225-12.666q-2.549,0-2.549,5.615,0,5.254,2.5,5.254,2.461,0,2.461-5.342Q103.8-12.432,101.386-12.432ZM120.219-10,115.707,1.6q-1.406,3.105-3.945,3.105a4.731,4.731,0,0,1-1.191-.127V2.7a3.168,3.168,0,0,0,.977.176,2.015,2.015,0,0,0,1.895-1.25l.674-1.641L110.141-10h2.51l2.383,7.266q.039.137.176.723h.049q.049-.225.176-.7l2.5-7.285ZM128.9-4.385h-6.816a2.881,2.881,0,0,0,.854,2.139,3.179,3.179,0,0,0,2.241.752,4.942,4.942,0,0,0,2.939-.957V-.625a6.716,6.716,0,0,1-3.613.859,4.473,4.473,0,0,1-3.462-1.362,5.449,5.449,0,0,1-1.255-3.833,5.328,5.328,0,0,1,1.382-3.8,4.52,4.52,0,0,1,3.433-1.47,3.941,3.941,0,0,1,3.174,1.318A5.474,5.474,0,0,1,128.9-5.254Zm-2.187-1.6a2.919,2.919,0,0,0-.576-1.9,1.925,1.925,0,0,0-1.562-.679,2.2,2.2,0,0,0-1.655.713,3.257,3.257,0,0,0-.835,1.865ZM137.6,0h-2.2V-1.562h-.039a3.308,3.308,0,0,1-3.037,1.8,3.2,3.2,0,0,1-2.31-.8,2.8,2.8,0,0,1-.835-2.119q0-2.832,3.262-3.3l2.969-.42q0-2.139-2.031-2.139a4.825,4.825,0,0,0-3.223,1.23V-9.3a7.028,7.028,0,0,1,3.652-.937q3.789,0,3.789,3.73ZM135.41-4.912l-2.1.293a3.328,3.328,0,0,0-1.47.474,1.384,1.384,0,0,0-.493,1.216,1.331,1.331,0,0,0,.454,1.04,1.758,1.758,0,0,0,1.216.405,2.243,2.243,0,0,0,1.714-.728,2.58,2.58,0,0,0,.679-1.831Zm9.612-2.93a1.878,1.878,0,0,0-1.182-.322,2.023,2.023,0,0,0-1.68.908,4.061,4.061,0,0,0-.674,2.471V0h-2.266V-10h2.266v2.061h.039a3.484,3.484,0,0,1,1.021-1.646,2.3,2.3,0,0,1,1.538-.591,1.909,1.909,0,0,1,.938.186Zm-.036,7.529v-2.1a4.52,4.52,0,0,0,2.8.967q2.051,0,2.051-1.211a.954.954,0,0,0-.176-.581,1.678,1.678,0,0,0-.474-.425,3.723,3.723,0,0,0-.7-.332q-.405-.146-.9-.332a9.563,9.563,0,0,1-1.108-.518,3.349,3.349,0,0,1-.82-.62,2.341,2.341,0,0,1-.493-.786A2.9,2.9,0,0,1,145-7.275a2.37,2.37,0,0,1,.342-1.274,2.97,2.97,0,0,1,.918-.928,4.4,4.4,0,0,1,1.309-.566,5.991,5.991,0,0,1,1.514-.19,6.881,6.881,0,0,1,2.48.42v1.982a4.181,4.181,0,0,0-2.422-.723,3.163,3.163,0,0,0-.776.088,2,2,0,0,0-.591.244,1.2,1.2,0,0,0-.381.376.9.9,0,0,0-.137.483,1.033,1.033,0,0,0,.137.547,1.242,1.242,0,0,0,.405.4,3.5,3.5,0,0,0,.645.313q.376.142.864.308a12.627,12.627,0,0,1,1.157.537,3.911,3.911,0,0,1,.874.62,2.431,2.431,0,0,1,.557.8,2.719,2.719,0,0,1,.2,1.079,2.467,2.467,0,0,1-.352,1.328A2.93,2.93,0,0,1,150.8-.5a4.389,4.389,0,0,1-1.353.552,7.026,7.026,0,0,1-1.616.181A6.81,6.81,0,0,1,144.985-.312Zm16.9.547a4.957,4.957,0,0,1-3.7-1.4,5.062,5.062,0,0,1-1.382-3.716,5.267,5.267,0,0,1,1.44-3.936,5.3,5.3,0,0,1,3.882-1.416,4.8,4.8,0,0,1,3.652,1.377,5.319,5.319,0,0,1,1.309,3.818,5.241,5.241,0,0,1-1.411,3.833A5.069,5.069,0,0,1,161.885.234Zm.107-8.662a2.586,2.586,0,0,0-2.1.928,3.885,3.885,0,0,0-.771,2.559,3.659,3.659,0,0,0,.781,2.476,2.624,2.624,0,0,0,2.09.9,2.49,2.49,0,0,0,2.056-.889,3.934,3.934,0,0,0,.718-2.529,3.993,3.993,0,0,0-.718-2.549A2.478,2.478,0,0,0,161.992-8.428Zm11.585-4.531a2.06,2.06,0,0,0-1.045-.264q-1.65,0-1.65,1.865V-10h2.324v1.777h-2.314V0h-2.266V-8.223h-1.709V-10h1.709v-1.621a3.156,3.156,0,0,1,1.035-2.5,3.77,3.77,0,0,1,2.588-.913,3.843,3.843,0,0,1,1.328.186ZM186.5-4.385h-6.816a2.881,2.881,0,0,0,.854,2.139,3.179,3.179,0,0,0,2.241.752,4.942,4.942,0,0,0,2.939-.957V-.625a6.716,6.716,0,0,1-3.613.859,4.473,4.473,0,0,1-3.462-1.362,5.449,5.449,0,0,1-1.255-3.833,5.328,5.328,0,0,1,1.382-3.8,4.52,4.52,0,0,1,3.433-1.47,3.941,3.941,0,0,1,3.174,1.318A5.474,5.474,0,0,1,186.5-5.254Zm-2.187-1.6a2.919,2.919,0,0,0-.576-1.9,1.925,1.925,0,0,0-1.562-.679,2.2,2.2,0,0,0-1.655.713,3.257,3.257,0,0,0-.835,1.865ZM195.88-10l-3.33,5.059L195.841,0h-2.627l-1.758-3.1q-.166-.283-.391-.723h-.039q-.039.088-.41.723L188.829,0h-2.617l3.4-4.9L186.387-10h2.637l1.729,3.252q.2.361.381.742h.029L193.4-10ZM198.7-1.475h-.039V4.6H196.4V-10h2.266v1.758h.039a3.713,3.713,0,0,1,3.4-1.992A3.58,3.58,0,0,1,205.072-8.9,5.611,5.611,0,0,1,206.136-5.3a6.23,6.23,0,0,1-1.2,4,3.973,3.973,0,0,1-3.281,1.5A3.277,3.277,0,0,1,198.7-1.475Zm-.059-3.945v1.24a2.646,2.646,0,0,0,.7,1.855,2.3,2.3,0,0,0,1.772.762,2.315,2.315,0,0,0,1.978-.981,4.567,4.567,0,0,0,.718-2.739,3.6,3.6,0,0,0-.669-2.31,2.2,2.2,0,0,0-1.812-.835,2.441,2.441,0,0,0-1.948.859A3.183,3.183,0,0,0,198.646-5.42Zm17.131,1.035h-6.816a2.881,2.881,0,0,0,.854,2.139,3.179,3.179,0,0,0,2.241.752A4.942,4.942,0,0,0,215-2.451V-.625a6.716,6.716,0,0,1-3.613.859,4.473,4.473,0,0,1-3.462-1.362,5.449,5.449,0,0,1-1.255-3.833,5.328,5.328,0,0,1,1.382-3.8,4.52,4.52,0,0,1,3.433-1.47,3.941,3.941,0,0,1,3.174,1.318,5.474,5.474,0,0,1,1.123,3.662Zm-2.187-1.6a2.919,2.919,0,0,0-.576-1.9,1.925,1.925,0,0,0-1.562-.679,2.2,2.2,0,0,0-1.655.713,3.257,3.257,0,0,0-.835,1.865ZM222.6-7.842a1.878,1.878,0,0,0-1.182-.322,2.023,2.023,0,0,0-1.68.908,4.061,4.061,0,0,0-.674,2.471V0H216.8V-10h2.266v2.061h.039a3.484,3.484,0,0,1,1.021-1.646,2.3,2.3,0,0,1,1.538-.591,1.909,1.909,0,0,1,.938.186Zm1.6-4.258a1.362,1.362,0,0,1-.952-.361,1.189,1.189,0,0,1-.4-.918,1.219,1.219,0,0,1,.4-.928,1.342,1.342,0,0,1,.952-.371,1.384,1.384,0,0,1,.977.371,1.212,1.212,0,0,1,.4.928,1.2,1.2,0,0,1-.4.9A1.374,1.374,0,0,1,224.2-12.1ZM225.324,0h-2.266V-10h2.266Zm10.286-4.385h-6.816a2.881,2.881,0,0,0,.854,2.139,3.179,3.179,0,0,0,2.241.752,4.942,4.942,0,0,0,2.939-.957V-.625a6.716,6.716,0,0,1-3.613.859,4.473,4.473,0,0,1-3.462-1.362A5.449,5.449,0,0,1,226.5-4.961a5.328,5.328,0,0,1,1.382-3.8,4.52,4.52,0,0,1,3.433-1.47,3.941,3.941,0,0,1,3.174,1.318,5.474,5.474,0,0,1,1.123,3.662Zm-2.187-1.6a2.919,2.919,0,0,0-.576-1.9,1.925,1.925,0,0,0-1.562-.679,2.2,2.2,0,0,0-1.655.713,3.257,3.257,0,0,0-.835,1.865ZM245.534,0h-2.266V-5.635q0-2.8-1.982-2.8a2.164,2.164,0,0,0-1.709.776A2.88,2.88,0,0,0,238.9-5.7V0h-2.275V-10H238.9v1.66h.039a3.564,3.564,0,0,1,3.242-1.895,3.02,3.02,0,0,1,2.49,1.06,4.758,4.758,0,0,1,.859,3.062Zm8.782-.459a5.587,5.587,0,0,1-2.842.693,4.813,4.813,0,0,1-3.594-1.392,4.93,4.93,0,0,1-1.367-3.608,5.426,5.426,0,0,1,1.47-3.97,5.254,5.254,0,0,1,3.931-1.5,5.738,5.738,0,0,1,2.412.479v2.109a3.653,3.653,0,0,0-2.227-.781,3.094,3.094,0,0,0-2.354.972,3.553,3.553,0,0,0-.918,2.544,3.388,3.388,0,0,0,.864,2.451,3.068,3.068,0,0,0,2.319.9,3.625,3.625,0,0,0,2.3-.869Zm9.573-3.926h-6.816a2.881,2.881,0,0,0,.854,2.139,3.179,3.179,0,0,0,2.241.752,4.942,4.942,0,0,0,2.939-.957V-.625a6.716,6.716,0,0,1-3.613.859,4.473,4.473,0,0,1-3.462-1.362,5.449,5.449,0,0,1-1.255-3.833,5.328,5.328,0,0,1,1.382-3.8,4.52,4.52,0,0,1,3.433-1.47,3.941,3.941,0,0,1,3.174,1.318,5.474,5.474,0,0,1,1.123,3.662Zm-2.187-1.6a2.919,2.919,0,0,0-.576-1.9,1.925,1.925,0,0,0-1.562-.679,2.2,2.2,0,0,0-1.655.713,3.257,3.257,0,0,0-.835,1.865ZM284.216,0H281.95V-5.449a4.416,4.416,0,0,0-.444-2.275,1.634,1.634,0,0,0-1.5-.7,1.807,1.807,0,0,0-1.509.889,3.626,3.626,0,0,0-.62,2.129V0H275.6V-5.635q0-2.793-1.973-2.793a1.779,1.779,0,0,0-1.509.84,3.7,3.7,0,0,0-.591,2.178V0h-2.266V-10h2.266v1.582h.039a3.464,3.464,0,0,1,3.154-1.816,2.974,2.974,0,0,1,1.812.571,2.845,2.845,0,0,1,1.06,1.5,3.569,3.569,0,0,1,3.32-2.07q3.3,0,3.3,4.072Zm9.3,0h-2.2V-1.562h-.039a3.308,3.308,0,0,1-3.037,1.8,3.2,3.2,0,0,1-2.31-.8,2.8,2.8,0,0,1-.835-2.119q0-2.832,3.262-3.3l2.969-.42q0-2.139-2.031-2.139a4.825,4.825,0,0,0-3.223,1.23V-9.3a7.028,7.028,0,0,1,3.652-.937q3.789,0,3.789,3.73Zm-2.187-4.912-2.1.293a3.328,3.328,0,0,0-1.47.474,1.384,1.384,0,0,0-.493,1.216,1.331,1.331,0,0,0,.454,1.04,1.758,1.758,0,0,0,1.216.405,2.243,2.243,0,0,0,1.714-.728,2.579,2.579,0,0,0,.679-1.831ZM304.211,0H301.34l-3.887-4.8h-.039V0h-2.275V-14.8h2.275V-5.42h.039L301.125-10h2.725l-4.131,4.824Zm8.4-4.385H305.8a2.881,2.881,0,0,0,.854,2.139,3.179,3.179,0,0,0,2.241.752,4.942,4.942,0,0,0,2.939-.957V-.625a6.716,6.716,0,0,1-3.613.859,4.473,4.473,0,0,1-3.462-1.362A5.449,5.449,0,0,1,303.5-4.961a5.328,5.328,0,0,1,1.382-3.8,4.52,4.52,0,0,1,3.433-1.47,3.941,3.941,0,0,1,3.174,1.318,5.474,5.474,0,0,1,1.123,3.662Zm-2.187-1.6a2.919,2.919,0,0,0-.576-1.9,1.925,1.925,0,0,0-1.562-.679,2.2,2.2,0,0,0-1.655.713,3.257,3.257,0,0,0-.835,1.865ZM326.651-10,322.139,1.6q-1.406,3.105-3.945,3.105A4.731,4.731,0,0,1,317,4.58V2.7a3.168,3.168,0,0,0,.977.176,2.015,2.015,0,0,0,1.895-1.25l.674-1.641L316.573-10h2.51l2.383,7.266q.039.137.176.723h.049q.049-.225.176-.7l2.5-7.285ZM331.3.234a4.957,4.957,0,0,1-3.7-1.4,5.062,5.062,0,0,1-1.382-3.716,5.267,5.267,0,0,1,1.44-3.936,5.3,5.3,0,0,1,3.882-1.416A4.8,4.8,0,0,1,335.2-8.857a5.319,5.319,0,0,1,1.309,3.818A5.241,5.241,0,0,1,335.1-1.206,5.069,5.069,0,0,1,331.3.234Zm.107-8.662a2.586,2.586,0,0,0-2.1.928,3.885,3.885,0,0,0-.771,2.559,3.659,3.659,0,0,0,.781,2.476,2.624,2.624,0,0,0,2.09.9,2.49,2.49,0,0,0,2.056-.889,3.934,3.934,0,0,0,.718-2.529,3.993,3.993,0,0,0-.718-2.549A2.478,2.478,0,0,0,331.409-8.428ZM346.392,0h-2.266V-1.582h-.039A3.26,3.26,0,0,1,341.021.234q-3.545,0-3.545-4.258V-10h2.266v5.742q0,2.7,2.08,2.7a2.1,2.1,0,0,0,1.655-.742,2.844,2.844,0,0,0,.649-1.943V-10h2.266ZM354-7.842a1.878,1.878,0,0,0-1.182-.322,2.023,2.023,0,0,0-1.68.908,4.061,4.061,0,0,0-.674,2.471V0H348.2V-10h2.266v2.061h.039a3.484,3.484,0,0,1,1.021-1.646,2.3,2.3,0,0,1,1.538-.591A1.909,1.909,0,0,1,354-9.99ZM367.913,0h-2.266V-1.7h-.039A3.614,3.614,0,0,1,362.24.234a3.637,3.637,0,0,1-2.954-1.343,5.574,5.574,0,0,1-1.108-3.657A6.073,6.073,0,0,1,359.4-8.74a4.011,4.011,0,0,1,3.267-1.494,3.128,3.128,0,0,1,2.939,1.621h.039V-14.8h2.266Zm-2.236-4.57V-5.879a2.549,2.549,0,0,0-.693-1.807,2.313,2.313,0,0,0-1.768-.742,2.38,2.38,0,0,0-2,.947,4.221,4.221,0,0,0-.728,2.627,3.782,3.782,0,0,0,.7,2.407,2.271,2.271,0,0,0,1.88.884,2.351,2.351,0,0,0,1.885-.854A3.219,3.219,0,0,0,365.677-4.57Zm9.856-3.271a1.878,1.878,0,0,0-1.182-.322,2.023,2.023,0,0,0-1.68.908A4.061,4.061,0,0,0,372-4.785V0h-2.266V-10H372v2.061h.039a3.484,3.484,0,0,1,1.021-1.646,2.3,2.3,0,0,1,1.538-.591,1.909,1.909,0,0,1,.938.186Zm8.753,3.457h-6.816a2.881,2.881,0,0,0,.854,2.139,3.179,3.179,0,0,0,2.241.752,4.942,4.942,0,0,0,2.939-.957V-.625a6.716,6.716,0,0,1-3.613.859,4.473,4.473,0,0,1-3.462-1.362,5.449,5.449,0,0,1-1.255-3.833,5.328,5.328,0,0,1,1.382-3.8,4.52,4.52,0,0,1,3.433-1.47,3.941,3.941,0,0,1,3.174,1.318,5.474,5.474,0,0,1,1.123,3.662Zm-2.187-1.6a2.919,2.919,0,0,0-.576-1.9,1.925,1.925,0,0,0-1.562-.679,2.2,2.2,0,0,0-1.655.713,3.257,3.257,0,0,0-.835,1.865ZM392.98,0h-2.2V-1.562h-.039a3.308,3.308,0,0,1-3.037,1.8,3.2,3.2,0,0,1-2.31-.8,2.8,2.8,0,0,1-.835-2.119q0-2.832,3.262-3.3l2.969-.42q0-2.139-2.031-2.139a4.825,4.825,0,0,0-3.223,1.23V-9.3a7.028,7.028,0,0,1,3.652-.937q3.789,0,3.789,3.73Zm-2.187-4.912-2.1.293a3.328,3.328,0,0,0-1.47.474,1.384,1.384,0,0,0-.493,1.216,1.331,1.331,0,0,0,.454,1.04,1.758,1.758,0,0,0,1.216.405,2.243,2.243,0,0,0,1.714-.728,2.579,2.579,0,0,0,.679-1.831ZM409.555,0h-2.266V-5.449a4.416,4.416,0,0,0-.444-2.275,1.634,1.634,0,0,0-1.5-.7,1.807,1.807,0,0,0-1.509.889,3.626,3.626,0,0,0-.62,2.129V0h-2.275V-5.635q0-2.793-1.973-2.793a1.779,1.779,0,0,0-1.509.84,3.7,3.7,0,0,0-.591,2.178V0H394.6V-10h2.266v1.582h.039a3.464,3.464,0,0,1,3.154-1.816,2.974,2.974,0,0,1,1.812.571,2.845,2.845,0,0,1,1.06,1.5,3.569,3.569,0,0,1,3.32-2.07q3.3,0,3.3,4.072Zm1-.312v-2.1a4.52,4.52,0,0,0,2.8.967q2.051,0,2.051-1.211a.954.954,0,0,0-.176-.581,1.678,1.678,0,0,0-.474-.425,3.724,3.724,0,0,0-.7-.332q-.405-.146-.9-.332a9.562,9.562,0,0,1-1.108-.518,3.349,3.349,0,0,1-.82-.62,2.341,2.341,0,0,1-.493-.786,2.9,2.9,0,0,1-.166-1.025A2.37,2.37,0,0,1,410.9-8.55a2.97,2.97,0,0,1,.918-.928,4.4,4.4,0,0,1,1.309-.566,5.991,5.991,0,0,1,1.514-.19,6.881,6.881,0,0,1,2.48.42v1.982a4.181,4.181,0,0,0-2.422-.723,3.163,3.163,0,0,0-.776.088,2,2,0,0,0-.591.244,1.2,1.2,0,0,0-.381.376.9.9,0,0,0-.137.483,1.033,1.033,0,0,0,.137.547,1.242,1.242,0,0,0,.405.4,3.5,3.5,0,0,0,.645.313q.376.142.864.308a12.627,12.627,0,0,1,1.157.537,3.91,3.91,0,0,1,.874.62,2.431,2.431,0,0,1,.557.8,2.719,2.719,0,0,1,.2,1.079,2.467,2.467,0,0,1-.352,1.328,2.93,2.93,0,0,1-.937.938,4.388,4.388,0,0,1-1.353.552A7.026,7.026,0,0,1,413.4.234,6.81,6.81,0,0,1,410.553-.312Zm19.624-.146a5.587,5.587,0,0,1-2.842.693,4.813,4.813,0,0,1-3.594-1.392,4.93,4.93,0,0,1-1.367-3.608,5.426,5.426,0,0,1,1.47-3.97,5.255,5.255,0,0,1,3.931-1.5,5.738,5.738,0,0,1,2.412.479v2.109a3.653,3.653,0,0,0-2.227-.781,3.094,3.094,0,0,0-2.354.972,3.553,3.553,0,0,0-.918,2.544,3.388,3.388,0,0,0,.864,2.451,3.068,3.068,0,0,0,2.319.9,3.625,3.625,0,0,0,2.3-.869Zm5.54.693a4.957,4.957,0,0,1-3.7-1.4,5.062,5.062,0,0,1-1.382-3.716,5.267,5.267,0,0,1,1.44-3.936,5.3,5.3,0,0,1,3.882-1.416,4.8,4.8,0,0,1,3.652,1.377,5.319,5.319,0,0,1,1.309,3.818,5.241,5.241,0,0,1-1.411,3.833A5.069,5.069,0,0,1,435.717.234Zm.107-8.662a2.586,2.586,0,0,0-2.1.928,3.885,3.885,0,0,0-.771,2.559,3.659,3.659,0,0,0,.781,2.476,2.624,2.624,0,0,0,2.09.9,2.49,2.49,0,0,0,2.056-.889A3.934,3.934,0,0,0,438.6-4.98a3.993,3.993,0,0,0-.718-2.549A2.478,2.478,0,0,0,435.825-8.428ZM457.038,0h-2.266V-5.449a4.416,4.416,0,0,0-.444-2.275,1.634,1.634,0,0,0-1.5-.7,1.807,1.807,0,0,0-1.509.889,3.626,3.626,0,0,0-.62,2.129V0h-2.275V-5.635q0-2.793-1.973-2.793a1.779,1.779,0,0,0-1.509.84,3.7,3.7,0,0,0-.591,2.178V0h-2.266V-10h2.266v1.582h.039a3.464,3.464,0,0,1,3.154-1.816,2.974,2.974,0,0,1,1.812.571,2.845,2.845,0,0,1,1.06,1.5,3.569,3.569,0,0,1,3.32-2.07q3.3,0,3.3,4.072Zm10.09-4.385h-6.816a2.881,2.881,0,0,0,.854,2.139,3.179,3.179,0,0,0,2.241.752,4.942,4.942,0,0,0,2.939-.957V-.625a6.716,6.716,0,0,1-3.613.859,4.473,4.473,0,0,1-3.462-1.362,5.449,5.449,0,0,1-1.255-3.833,5.328,5.328,0,0,1,1.382-3.8,4.52,4.52,0,0,1,3.433-1.47,3.941,3.941,0,0,1,3.174,1.318,5.474,5.474,0,0,1,1.123,3.662Zm-2.187-1.6a2.919,2.919,0,0,0-.576-1.9,1.925,1.925,0,0,0-1.562-.679,2.2,2.2,0,0,0-1.655.713,3.257,3.257,0,0,0-.835,1.865ZM477.778-.107a3.926,3.926,0,0,1-1.748.332q-2.91,0-2.91-2.793V-8.223h-1.67V-10h1.67v-2.314l2.266-.645V-10h2.393v1.777h-2.393v5a1.97,1.97,0,0,0,.322,1.27,1.338,1.338,0,0,0,1.074.381,1.558,1.558,0,0,0,1-.332Zm6.614-7.734a1.878,1.878,0,0,0-1.182-.322,2.023,2.023,0,0,0-1.68.908,4.061,4.061,0,0,0-.674,2.471V0h-2.266V-10h2.266v2.061h.039a3.484,3.484,0,0,1,1.021-1.646,2.3,2.3,0,0,1,1.538-.591,1.909,1.909,0,0,1,.938.186ZM493.574,0h-2.266V-1.582h-.039A3.26,3.26,0,0,1,488.2.234q-3.545,0-3.545-4.258V-10h2.266v5.742q0,2.7,2.08,2.7a2.1,2.1,0,0,0,1.655-.742,2.844,2.844,0,0,0,.649-1.943V-10h2.266ZM503.85-4.385h-6.816a2.881,2.881,0,0,0,.854,2.139,3.179,3.179,0,0,0,2.241.752,4.942,4.942,0,0,0,2.939-.957V-.625a6.716,6.716,0,0,1-3.613.859,4.473,4.473,0,0,1-3.462-1.362,5.449,5.449,0,0,1-1.255-3.833,5.328,5.328,0,0,1,1.382-3.8,4.52,4.52,0,0,1,3.433-1.47,3.941,3.941,0,0,1,3.174,1.318,5.474,5.474,0,0,1,1.123,3.662Zm-2.187-1.6a2.919,2.919,0,0,0-.576-1.9,1.925,1.925,0,0,0-1.562-.679,2.2,2.2,0,0,0-1.655.713,3.257,3.257,0,0,0-.835,1.865Z" transform="translate(1364 528)" fill="#fff"/>
    <path id="The_Team" data-name="The Team" d="M8.57-9.625H5.352V0H3.492V-9.625H.281V-11.2H8.57ZM17.117,0H15.3V-4.375q0-2.375-1.586-2.375a1.659,1.659,0,0,0-1.344.688A2.737,2.737,0,0,0,11.828-4.3V0h-1.82V-11.844h1.82v5.172h.031a2.862,2.862,0,0,1,2.594-1.516q2.664,0,2.664,3.258Zm8.977-3.508H20.641A2.305,2.305,0,0,0,21.324-1.8a2.543,2.543,0,0,0,1.793.6,3.954,3.954,0,0,0,2.352-.766V-.5a5.373,5.373,0,0,1-2.891.688A3.578,3.578,0,0,1,19.809-.9a4.359,4.359,0,0,1-1-3.066A4.263,4.263,0,0,1,19.91-7.012a3.616,3.616,0,0,1,2.746-1.176A3.153,3.153,0,0,1,25.2-7.133a4.379,4.379,0,0,1,.9,2.93Zm-1.75-1.281a2.336,2.336,0,0,0-.461-1.52,1.54,1.54,0,0,0-1.25-.543,1.759,1.759,0,0,0-1.324.57,2.605,2.605,0,0,0-.668,1.492ZM39.609-9.625H36.391V0H34.531V-9.625H31.32V-11.2h8.289Zm6.656,6.117H40.813A2.305,2.305,0,0,0,41.5-1.8a2.543,2.543,0,0,0,1.793.6,3.954,3.954,0,0,0,2.352-.766V-.5A5.373,5.373,0,0,1,42.75.188,3.578,3.578,0,0,1,39.98-.9a4.359,4.359,0,0,1-1-3.066,4.263,4.263,0,0,1,1.105-3.043,3.616,3.616,0,0,1,2.746-1.176,3.153,3.153,0,0,1,2.539,1.055,4.379,4.379,0,0,1,.9,2.93Zm-1.75-1.281a2.336,2.336,0,0,0-.461-1.52,1.54,1.54,0,0,0-1.25-.543,1.759,1.759,0,0,0-1.324.57,2.605,2.605,0,0,0-.668,1.492ZM54.133,0H52.375V-1.25h-.031A2.647,2.647,0,0,1,49.914.188a2.559,2.559,0,0,1-1.848-.641,2.241,2.241,0,0,1-.668-1.7q0-2.266,2.609-2.641l2.375-.336q0-1.711-1.625-1.711a3.86,3.86,0,0,0-2.578.984V-7.437a5.622,5.622,0,0,1,2.922-.75q3.031,0,3.031,2.984Zm-1.75-3.93L50.7-3.7a2.662,2.662,0,0,0-1.176.379,1.107,1.107,0,0,0-.395.973,1.065,1.065,0,0,0,.363.832,1.407,1.407,0,0,0,.973.324A1.8,1.8,0,0,0,51.84-1.77a2.064,2.064,0,0,0,.543-1.465ZM68.3,0H66.492V-4.359a3.533,3.533,0,0,0-.355-1.82,1.308,1.308,0,0,0-1.2-.562,1.445,1.445,0,0,0-1.207.711,2.9,2.9,0,0,0-.5,1.7V0h-1.82V-4.508q0-2.234-1.578-2.234a1.424,1.424,0,0,0-1.207.672,2.963,2.963,0,0,0-.473,1.742V0H56.344V-8h1.813v1.266h.031a2.771,2.771,0,0,1,2.523-1.453,2.379,2.379,0,0,1,1.449.457,2.276,2.276,0,0,1,.848,1.2,2.855,2.855,0,0,1,2.656-1.656q2.641,0,2.641,3.258Z" transform="translate(1365.5 446)" fill="#fff"/>
    <path id="momodani" d="M9.375-1.1q.2.024.72-.476t1.233-1.257Q12.5-4.1,13.757-5.225a3.715,3.715,0,0,1,2.112-1.147.988.988,0,0,1,.916.916A7.315,7.315,0,0,1,16.8-3.711,7.794,7.794,0,0,0,16.736-2.6a1.028,1.028,0,0,0,.232.72q.415.415,3.174-1.221a.691.691,0,0,1,.549-.122.238.238,0,0,1,.171.293q-.037.22-.452.464a13.636,13.636,0,0,1-2.783,1.428,1.473,1.473,0,0,1-1.514-.183q-.9-.879-.659-3.1.024-.513-.11-.5a1.674,1.674,0,0,0-.574.378.383.383,0,0,1-.1.073q-.732.61-1.66,1.514A28.547,28.547,0,0,1,10.8-.891q-1.062.842-1.7.647a1.416,1.416,0,0,1-.879-1.392A6.6,6.6,0,0,1,8.606-3.87q.4-1.208.818-2.161.2-.488.317-.806.171-.61-.586-.146A18.387,18.387,0,0,0,7.178-5.505q-1.221,1.013-2.429,2.1L2.808-1.66a5.49,5.49,0,0,0-.513.488l-.366.293Q1.465-.439.757.159A12.257,12.257,0,0,1-.61,1.172q-.659.415-1,.293-.732-.391-.171-1.538A36.679,36.679,0,0,1,1.587-5.64q.977-1.392,1.88-2.808a.187.187,0,0,0,.024-.073q0-.024-.049-.073l-.024-.024A.371.371,0,0,1,3.3-8.984,1.023,1.023,0,0,1,3.54-9.4a3.261,3.261,0,0,1,.452-.342,2.15,2.15,0,0,1,.671-.305.4.4,0,0,1,.488.159q.146.244-.122,1.025A64.21,64.21,0,0,1,1.587-3.394Q1.147-2.734.732-2.1q-.586.879-.439.83a4.176,4.176,0,0,0,.781-.61l.342-.293q1.636-1.44,3.43-2.917A32.9,32.9,0,0,1,8.13-7.507a3.226,3.226,0,0,1,2.222-.745q1,.464.366,2.344-.049.122-.171.439-.22.659-.574,1.66T9.412-1.99Q9.2-1.172,9.375-1.1ZM24.17.439Q22.461,2.1,20.959,1.66T19.507-.94q.049-2.161,3.052-5.652a4.877,4.877,0,0,1,1.831-1.44A.874.874,0,0,1,25.244-8q.293.232.024.916a2.683,2.683,0,0,1-.83.659,1.118,1.118,0,0,1-.513.1,1.3,1.3,0,0,0-.183.012.249.249,0,0,0-.159.11,14.09,14.09,0,0,0-2.82,4.443q-.5,1.685.134,2.283a1.382,1.382,0,0,0,1.709.037,4.315,4.315,0,0,0,1.1-1.1,10.193,10.193,0,0,0,1-1.587q.073-.122.122-.2A.3.3,0,0,0,24.9-2.49q0-.073-.122-.171a3.768,3.768,0,0,1-.757-1.16A1.782,1.782,0,0,1,23.9-5.127a.667.667,0,0,1,.732-.342,1.633,1.633,0,0,1,1.025.562,2.235,2.235,0,0,1,.513,1.538,1.186,1.186,0,0,0,.513,1.013,1.488,1.488,0,0,0,1.025.2,1.7,1.7,0,0,0,.928-.427q.317-.293.452-.159t-.037.452a1.565,1.565,0,0,1-.757.586,2.767,2.767,0,0,1-1.428.269,1.993,1.993,0,0,1-.745-.269.446.446,0,0,0-.317-.134q-.146.012-.293.305-.244.439-.623,1.025A6.862,6.862,0,0,1,24.17.439ZM37.817-1.1q.2.024.72-.476t1.233-1.257Q40.942-4.1,42.2-5.225a3.715,3.715,0,0,1,2.112-1.147.988.988,0,0,1,.916.916,7.315,7.315,0,0,1,.012,1.746A7.794,7.794,0,0,0,45.178-2.6a1.028,1.028,0,0,0,.232.72q.415.415,3.174-1.221a.691.691,0,0,1,.549-.122.238.238,0,0,1,.171.293q-.037.22-.452.464a13.636,13.636,0,0,1-2.783,1.428,1.473,1.473,0,0,1-1.514-.183q-.9-.879-.659-3.1.024-.513-.11-.5a1.674,1.674,0,0,0-.574.378.383.383,0,0,1-.1.073q-.732.61-1.66,1.514A28.546,28.546,0,0,1,39.246-.891q-1.062.842-1.7.647a1.416,1.416,0,0,1-.879-1.392,6.6,6.6,0,0,1,.378-2.234q.4-1.208.818-2.161.2-.488.317-.806.171-.61-.586-.146A18.387,18.387,0,0,0,35.62-5.505q-1.221,1.013-2.429,2.1L31.25-1.66a5.489,5.489,0,0,0-.513.488l-.366.293Q29.907-.439,29.2.159a12.258,12.258,0,0,1-1.367,1.013q-.659.415-1,.293Q26.1,1.074,26.66-.073A36.679,36.679,0,0,1,30.029-5.64q.977-1.392,1.88-2.808a.187.187,0,0,0,.024-.073q0-.024-.049-.073l-.024-.024a.371.371,0,0,1-.122-.366,1.023,1.023,0,0,1,.244-.415,3.261,3.261,0,0,1,.452-.342,2.15,2.15,0,0,1,.671-.305.4.4,0,0,1,.488.159q.146.244-.122,1.025a64.21,64.21,0,0,1-3.442,5.469q-.439.659-.854,1.294-.586.879-.439.83a4.176,4.176,0,0,0,.781-.61l.342-.293q1.636-1.44,3.43-2.917a32.9,32.9,0,0,1,3.284-2.417,3.226,3.226,0,0,1,2.222-.745q1,.464.366,2.344-.049.122-.171.439-.22.659-.574,1.66T37.854-1.99Q37.646-1.172,37.817-1.1ZM52.612.439Q50.9,2.1,49.4,1.66T47.949-.94Q48-3.1,51-6.592a4.877,4.877,0,0,1,1.831-1.44A.874.874,0,0,1,53.687-8q.293.232.024.916a2.683,2.683,0,0,1-.83.659,1.118,1.118,0,0,1-.513.1,1.3,1.3,0,0,0-.183.012.249.249,0,0,0-.159.11,14.09,14.09,0,0,0-2.82,4.443q-.5,1.685.134,2.283A1.382,1.382,0,0,0,51.05.562a4.315,4.315,0,0,0,1.1-1.1,10.193,10.193,0,0,0,1-1.587q.073-.122.122-.2a.3.3,0,0,0,.073-.171q0-.073-.122-.171a3.769,3.769,0,0,1-.757-1.16,1.782,1.782,0,0,1-.122-1.306.667.667,0,0,1,.732-.342,1.633,1.633,0,0,1,1.025.562,2.235,2.235,0,0,1,.513,1.538,1.186,1.186,0,0,0,.513,1.013,1.488,1.488,0,0,0,1.025.2,1.7,1.7,0,0,0,.928-.427q.317-.293.452-.159t-.037.452a1.565,1.565,0,0,1-.757.586,2.767,2.767,0,0,1-1.428.269,1.993,1.993,0,0,1-.745-.269.446.446,0,0,0-.317-.134q-.146.012-.293.305-.244.439-.623,1.025A6.862,6.862,0,0,1,52.612.439Zm14.551-6.86q-1.172,1.172-3.027,2.844T60.3-.4a15.54,15.54,0,0,1-3.479,2.1q-1.5.6-1.941-.4-.269-.9.94-2.881a23.969,23.969,0,0,1,3.235-4.077A20.106,20.106,0,0,1,63.33-9.082a5.7,5.7,0,0,1,4.077-.928,1.954,1.954,0,0,1,.659.293,1.182,1.182,0,0,0,.232.11.312.312,0,0,0,.256-.049,2.18,2.18,0,0,0,.391-.33A17.48,17.48,0,0,0,70.508-11.6a14.8,14.8,0,0,0,1.294-1.88q2.075-3.491,3.3-5.347a39.737,39.737,0,0,1,3.784-4.932,34.721,34.721,0,0,1,3.711-3.662,2.935,2.935,0,0,1,1.05-.549,1.972,1.972,0,0,1,1.1-.049.778.778,0,0,1,.562.745,9.7,9.7,0,0,1-1.611,3.027,60.315,60.315,0,0,1-5.066,6.409q-2.7,2.966-5.115,5.188a16.848,16.848,0,0,0-1.538,1.672A19.323,19.323,0,0,0,70.7-9.033Q68.213-4.907,65.735-.9t-4.15,6.677q-1.672,2.673-1.77,2.8a.647.647,0,0,1-.4.317.275.275,0,0,1-.33-.122q-.1-.171.122-.562Q60.6,5.786,62.671,2.148q3.076-5.4,5.054-8.765.513-.806.391-.732a7.345,7.345,0,0,0-.732.684A2.972,2.972,0,0,1,67.163-6.421ZM77.515-18.481a49.913,49.913,0,0,0,5.176-6.348,6.294,6.294,0,0,0,.659-1.16q.1-.305-.11-.244a2.153,2.153,0,0,0-.586.342q-.378.281-.769.623t-.635.586q-1.294,1.367-2.844,3.308T75.781-17.8a17.13,17.13,0,0,0-1,1.746q-.2.452.049.293a5.554,5.554,0,0,0,.769-.7q.525-.537,1.135-1.2Q77.124-18.091,77.515-18.481ZM67.236-9.033a5.973,5.973,0,0,0-3.955,1.4,27.323,27.323,0,0,0-4.26,3.735,20.689,20.689,0,0,0-2.8,3.552A3.753,3.753,0,0,0,55.8.647q-.061.33.525.012a34.234,34.234,0,0,0,4.785-3.5q3.027-2.527,6.274-5.627.244-.22.22-.354T67.236-9.033ZM84.375-3.32q.659-.342.781-.049t-.464.708a13.55,13.55,0,0,1-2.38,1.086,5.031,5.031,0,0,1-2.6.317q-1.147-.208-1.2-1.843v-.122q.024-.342-.049-.354a1.078,1.078,0,0,0-.415.208A29.86,29.86,0,0,1,72.5-.293q-1.77.61-2.087.049-.391-.781.977-2.429a17.29,17.29,0,0,1,3.528-3.137A10.114,10.114,0,0,1,79.053-7.6,2.372,2.372,0,0,1,81.836-6.03a.47.47,0,0,1-.073.439.74.74,0,0,1-.391.269.7.7,0,0,1-.549-.1,1,1,0,0,1-.427-.415.217.217,0,0,1,.024-.1l.049-.1.049-.1a.1.1,0,0,0,0-.1q-.61-.83-2.1-.244a13.713,13.713,0,0,0-3.149,1.831,29.53,29.53,0,0,0-2.808,2.356Q71.313-1.172,71.387-.928q.1.244,1.929-.806t6.006-3.931a.687.687,0,0,1,.452-.085.548.548,0,0,1,.378.256.582.582,0,0,1,.024.586q-.928,2-.208,2.466a2.522,2.522,0,0,0,2.075.073A10.53,10.53,0,0,0,84.375-3.32ZM82.568.146a24.6,24.6,0,0,1,1.477-2.905q.989-1.709,1.917-3.271.513-.83.879-1.44a.68.68,0,0,1-.146-.415.583.583,0,0,1,.146-.391,2.621,2.621,0,0,1,.928-.757l.049-.024a.537.537,0,0,1,.391,0,.666.666,0,0,1,.464.464v.122a.9.9,0,0,1-.122.439q-.9,1.465-2.014,3.333T84.57-1.318q.586-.562,1.892-1.624t2.612-1.978a4.889,4.889,0,0,1,1.868-.964q.879.024,1,.7a4.635,4.635,0,0,1,0,1.5A4.985,4.985,0,0,0,91.919-2.6a.451.451,0,0,0,.5.452,3.6,3.6,0,0,0,1.55-.732q.317-.2.452-.1a.3.3,0,0,1,.085.33.593.593,0,0,1-.269.378q-2.2,1.392-2.905.525a3.777,3.777,0,0,1-.366-2.966,3.581,3.581,0,0,0-1.538.867q-1.025.818-2.222,1.892-1.05.928-2,1.709A9.862,9.862,0,0,1,83.594.879a.834.834,0,0,1-.83,0A.589.589,0,0,1,82.568.146ZM99.8-11.23q.659.049.61.4a1.182,1.182,0,0,1-.476.708,2.18,2.18,0,0,1-.9.464.567.567,0,0,1-.7-.305.222.222,0,0,1,.037-.232.759.759,0,0,1,.244-.2q.159-.085.281-.159a.757.757,0,0,0,.146-.049q.049-.024.049-.049a.639.639,0,0,1,.22-.439A.63.63,0,0,1,99.8-11.23ZM94.36.366q-.952,0-1.123-.61a2.636,2.636,0,0,1,.159-1.55,12.392,12.392,0,0,1,.916-1.978q.586-1.038,1.172-1.9t.928-1.331a1.207,1.207,0,0,1,.171-.244.857.857,0,0,1,.269-.867,2.6,2.6,0,0,1,.977-.708q.562-.232.806.085a.542.542,0,0,1,.073.513,1.909,1.909,0,0,1-.269.464.8.8,0,0,0-.1.122Q97.412-6.323,96.326-4.7A24.451,24.451,0,0,0,94.7-1.978q-.415.952.525,1.05a7.175,7.175,0,0,0,2.441-.293q1.5-.391,2.759-.842a12.775,12.775,0,0,0,1.5-.6.422.422,0,0,1,.427-.049.289.289,0,0,1,.134.305.685.685,0,0,1-.342.427A20.15,20.15,0,0,1,98.01-.366,15.376,15.376,0,0,1,94.36.366Z" transform="translate(1764.5 571)" fill="#fff"/>
  </g>
</svg>
