<svg xmlns="http://www.w3.org/2000/svg" width="504.566" height="145.741" viewBox="0 0 504.566 145.741">
  <g id="Group_27" data-name="Group 27" transform="translate(-1370.281 -120.156)">
    <path id="DREAM_COME_TURE" data-name="DREAM COME TURE" d="M36.126-19.446a23.292,23.292,0,0,1-.835,6.338A17.228,17.228,0,0,1,32.77-7.764a16.619,16.619,0,0,1-4.206,4.105A19.869,19.869,0,0,1,22.672-.979,23.576,23.576,0,0,1,18.5-.216Q16.248,0,13.626,0H4.9V-38.546h8.815q2.622,0,4.869.216a23.576,23.576,0,0,1,4.177.763,20.327,20.327,0,0,1,5.891,2.65A16.194,16.194,0,0,1,32.827-30.9,16.755,16.755,0,0,1,35.3-25.683,22.777,22.777,0,0,1,36.126-19.446Zm-4.667,0a15.248,15.248,0,0,0-2.452-9.017,13.135,13.135,0,0,0-7.036-4.9,19.065,19.065,0,0,0-3.912-.749q-2.16-.2-4.875-.2H9.593V-4.235h3.591q2.715,0,4.875-.2a19.065,19.065,0,0,0,3.912-.749,12.862,12.862,0,0,0,7.036-5.042A16.042,16.042,0,0,0,31.459-19.446ZM53.152-38.517a42.106,42.106,0,0,1,5.618.288q9.363,1.815,9.363,9.91a10.484,10.484,0,0,1-3.083,7.778,11.963,11.963,0,0,1-8.124,3.313v.115L70.379,0H67.268L53.814-16.939H47.246V0H44.711V-38.517Zm12.33,10.141q0-4.321-3.284-6.079t-9.334-1.757H47.246v16.968h5.733q6.28,0,9.392-2.132T65.482-28.376ZM77.7-38.517H99.649v2.3H80.232v15.326H98.007v2.3H80.232V-2.3h20.541V0H77.7ZM105.324,0l15.758-38.517h2.478L139.376,0h-2.794L131.05-13.684H113.592L108.09,0ZM130.1-15.989l-1.469-3.716q-4.811-11.956-6.194-15.816h-.115q-1.181,3.284-3.889,9.766-.835,1.988-3.976,9.766Zm19.475-22.528L161.155-11.61,164.641-3h.115l14.865-35.521h3.947V0h-2.478V-17.8q0-8.643.4-18.351h-.23q-4.292,9.593-5.3,12.013L166,0h-2.478L153.291-24.142q-.749-1.786-5.358-12.013h-.173q.4,12.244.4,18.351V0h-2.535V-38.517Zm74.2,3.428a17.588,17.588,0,0,0-6.052,1.023,13.442,13.442,0,0,0-4.886,3.054,14.387,14.387,0,0,0-3.267,5.042,18.926,18.926,0,0,0-1.2,7.015,19.449,19.449,0,0,0,1.108,6.9,12.672,12.672,0,0,0,3.15,4.84,12.769,12.769,0,0,0,4.914,2.838,20.878,20.878,0,0,0,6.4.922q.962,0,2.041-.1t2.173-.288q1.094-.187,2.129-.432a18.162,18.162,0,0,0,1.852-.533V-.663A19.318,19.318,0,0,1,228.193.36a29.088,29.088,0,0,1-4.609.36,25.073,25.073,0,0,1-8.527-1.34,16.755,16.755,0,0,1-6.237-3.846A16.2,16.2,0,0,1,205-10.587a24.185,24.185,0,0,1-1.3-8.2,24.091,24.091,0,0,1,1.368-8.268,18.328,18.328,0,0,1,3.947-6.482,17.937,17.937,0,0,1,6.251-4.22,21.5,21.5,0,0,1,8.254-1.512q1.21,0,2.391.1t2.261.288a20.07,20.07,0,0,1,2,.447,12.51,12.51,0,0,1,1.584.547v4.148a29.856,29.856,0,0,0-3.821-.965A22.55,22.55,0,0,0,223.773-35.089Zm15.194,15.845A23.232,23.232,0,0,1,241.2-29.558a17.4,17.4,0,0,1,6.208-7.159,16.207,16.207,0,0,1,9.017-2.578,16.544,16.544,0,0,1,9.233,2.578,16.882,16.882,0,0,1,6.107,7.13,23.969,23.969,0,0,1,2.146,10.342,23.106,23.106,0,0,1-2.218,10.256,17.378,17.378,0,0,1-6.179,7.13A16.037,16.037,0,0,1,256.569.72a16.859,16.859,0,0,1-9.32-2.564,16.733,16.733,0,0,1-6.136-7.1A23.8,23.8,0,0,1,238.967-19.244Zm32.208,0a21.59,21.59,0,0,0-1.959-9.55A14.4,14.4,0,0,0,263.9-34.9a13.864,13.864,0,0,0-7.476-2.089,13.835,13.835,0,0,0-7.433,2.089,14.454,14.454,0,0,0-5.344,6.107,21.456,21.456,0,0,0-1.973,9.55,21.281,21.281,0,0,0,1.988,9.579,14.25,14.25,0,0,0,5.373,6.035,14.284,14.284,0,0,0,7.533,2.045,13.759,13.759,0,0,0,7.375-2.045,14.237,14.237,0,0,0,5.272-6.035A21.546,21.546,0,0,0,271.175-19.244Zm15.758-19.273L298.515-11.61,302-3h.115l14.865-35.521h3.947V0H318.45V-17.8q0-8.643.4-18.351h-.23q-4.292,9.593-5.3,12.013L303.354,0h-2.478L290.65-24.142q-.749-1.786-5.358-12.013h-.173q.4,12.244.4,18.351V0h-2.535V-38.517Zm44.308,0h21.952v2.3H333.776v15.326h17.775v2.3H333.776V-2.3h20.541V0H331.241ZM387.965,0h-4.7V-34.311H370.392v-4.235h30.451v4.235H387.965Zm33.821-3.457a12.962,12.962,0,0,0,3.731-.49,9.192,9.192,0,0,0,2.838-1.383,8.09,8.09,0,0,0,2.017-2.146,10.268,10.268,0,0,0,1.239-2.78,11.058,11.058,0,0,0,.4-2.117q.115-1.167.115-2.261V-38.546h4.7v23.8q0,1.354-.144,2.823a18.892,18.892,0,0,1-.461,2.737,14.646,14.646,0,0,1-1.642,3.947,11.077,11.077,0,0,1-2.852,3.14,13.43,13.43,0,0,1-4.22,2.074,19.932,19.932,0,0,1-5.776.749,20.092,20.092,0,0,1-5.56-.691,13.411,13.411,0,0,1-4.105-1.916,10.774,10.774,0,0,1-2.809-2.91,14.4,14.4,0,0,1-1.7-3.673,17.691,17.691,0,0,1-.619-3.083,28.221,28.221,0,0,1-.187-3.2v-23.8h4.7v23.911a19.648,19.648,0,0,0,.187,2.665,12.312,12.312,0,0,0,.591,2.492,8.836,8.836,0,0,0,3.356,4.408A10.768,10.768,0,0,0,421.787-3.457Zm29.385-12.5V0h-4.7V-38.546h9.985a41.8,41.8,0,0,1,4.3.187,20.306,20.306,0,0,1,3.238.591,11.511,11.511,0,0,1,6.158,3.731,10.138,10.138,0,0,1,2.129,6.583,11.017,11.017,0,0,1-.749,4.177,9.552,9.552,0,0,1-2.1,3.2,11.02,11.02,0,0,1-3.241,2.218A17.112,17.112,0,0,1,462-16.594v.115L473.412,0h-4.7L456.847-15.96Zm0-18.351v14.116h4.638q2.161,0,3.688-.144a13.6,13.6,0,0,0,2.737-.519,7.511,7.511,0,0,0,3.774-2.391,6.624,6.624,0,0,0,1.325-4.292,6.219,6.219,0,0,0-1.268-3.99,6.859,6.859,0,0,0-3.428-2.175,12.992,12.992,0,0,0-2.478-.461q-1.44-.144-3.659-.144ZM486.087-4.235H505.85V0H481.392V-38.546h23.393v4.235h-18.7v12.445H502.71v4.235H486.087Z" transform="translate(1368 181)" fill="#91d5c5"/>
    <path id="超过10年的经验使您的梦想成真" d="M8.752-15.405H8.5v2.515H8.85l2.905-.061q.269,0,.269.281A5.673,5.673,0,0,0,14.6-14.648a5.782,5.782,0,0,0,.83-2.808l-2.722.049a.386.386,0,0,1-.244-.049.42.42,0,0,1-.037-.22v-1.7q0-.208.049-.244a.456.456,0,0,1,.232-.037l2.917.049h4.248l2.93-.049q.33,0,.33.305a13.52,13.52,0,0,0-.073,1.392q-.085,4.3-.671,5.457a2.32,2.32,0,0,1-1.55,1.282,10.743,10.743,0,0,1-2.136.146q-.623,0-.732-.122a1.809,1.809,0,0,1-.183-.708,5.859,5.859,0,0,0-.476-1.648,9.031,9.031,0,0,0,1.868.183q.818,0,1.025-.476a12.169,12.169,0,0,0,.4-3.613h-2.7a8.449,8.449,0,0,1-1.184,4.1,7.959,7.959,0,0,1-2.7,2.49,1.956,1.956,0,0,1-.574.2q-.183,0-.525-.549a5.27,5.27,0,0,0-.9-1.074v1.465q0,.208-.049.244a.42.42,0,0,1-.22.037L8.85-10.6H8.679v2.649H9.753L11.45-8a.386.386,0,0,1,.244.049.42.42,0,0,1,.037.22v1.855q0,.244-.281.244l-1.7-.049H8.679v3.7a16.422,16.422,0,0,0,6.274.928,78.7,78.7,0,0,0,9.473-.574A7.385,7.385,0,0,0,23.73.33a1.427,1.427,0,0,1-.256.72,1.587,1.587,0,0,1-.7.134q-3.5.269-7.751.269Q10.083,1.453,7.568,0A9.224,9.224,0,0,1,4.3-2.942,18.312,18.312,0,0,1,3.015,1.1q-.2.5-.378.5-.122,0-.464-.354A3.7,3.7,0,0,0,.72.049,17.112,17.112,0,0,0,2.612-8.069q0-.9-.049-1.453a19.006,19.006,0,0,1,2.1.4q.4.1.4.293a.8.8,0,0,1-.1.354,2.541,2.541,0,0,0-.171,1q-.061,1.233-.134,1.843a7.761,7.761,0,0,0,1.66,2.112V-10.6H4.468l-2.93.049q-.244,0-.244-.281v-1.819a.445.445,0,0,1,.049-.269.319.319,0,0,1,.2-.037l2.93.061H6.042v-2.515H5.115l-2.722.049a.386.386,0,0,1-.244-.049.42.42,0,0,1-.037-.22v-1.807q0-.208.061-.256a.381.381,0,0,1,.22-.037l2.722.049h.928v-.208a21.959,21.959,0,0,0-.171-3.052,24.776,24.776,0,0,1,2.49.183q.415.037.415.244a1.621,1.621,0,0,1-.122.452A7.882,7.882,0,0,0,8.5-17.932v.256h.256l2.673-.049a.445.445,0,0,1,.269.049.492.492,0,0,1,.037.244v1.807q0,.2-.061.232a.492.492,0,0,1-.244.037Zm7.19,5.31h3.589l2.734-.049q.208,0,.244.049a.42.42,0,0,1,.037.22L22.5-7.727v2.979l.049,2.136a.4.4,0,0,1-.043.238.4.4,0,0,1-.238.043L19.531-2.38H15.942l-2.71.049q-.208,0-.244-.049a.456.456,0,0,1-.037-.232L13-4.749V-7.727l-.049-2.148q0-.2.049-.232a.456.456,0,0,1,.232-.037Zm4.236,5.566V-7.971H15.3v3.442ZM43.874-17.7l-1.624,1.428a21.332,21.332,0,0,0-3.955-3.2L39.98-20.85A20.039,20.039,0,0,1,43.874-17.7Zm15.552,3.43H56.2V-4.077a2.033,2.033,0,0,1-.421,1.361,1.771,1.771,0,0,1-.964.616,11.019,11.019,0,0,1-2.032.122q-1.27,0-2.039-.049L49.88-4.248q1.514.1,2.5.1a3.132,3.132,0,0,0,1.355-.165.634.634,0,0,0,.232-.555v-9.4H45.022v-2.161h8.948V-20.52H56.2v4.089h3.223Zm.2,13.049L58.669.952q-2.747.085-5.164.085A54.487,54.487,0,0,1,47.274.812a11.878,11.878,0,0,1-3.009-.83,10.432,10.432,0,0,1-2.612-1.605,17.005,17.005,0,0,1-2.7,3.076L37.38-.122a15.993,15.993,0,0,0,4.59-7.007H37.954V-9.021a39.509,39.509,0,0,0,3.625-4.333H37.722v-2.051h6.348v2.026a35.719,35.719,0,0,1-3.2,4.248h3.235v2.307q-.745,2.075-1.355,3.345A8.357,8.357,0,0,0,45.278-1.9a9.766,9.766,0,0,0,2.57.659q1.2.122,5.011.122Q56.252-1.123,59.621-1.221ZM52.15-7.751,50.319-6.421A32.571,32.571,0,0,0,46-12.024l1.782-1.221A33.387,33.387,0,0,1,52.15-7.751ZM79.557-17.9V0H76.725V-14.429a9.022,9.022,0,0,1-1.654.934,13.634,13.634,0,0,1-2.02.677v-2.417q.708-.232,1.367-.488t1.3-.574q.641-.317,1.294-.708t1.349-.891ZM99.884.293a4.888,4.888,0,0,1-4.266-2.234A11.385,11.385,0,0,1,94.086-8.4q0-4.639,1.6-7.019A5.22,5.22,0,0,1,100.3-17.8q5.774,0,5.774,8.972,0,4.443-1.63,6.781A5.244,5.244,0,0,1,99.884.293Zm.281-15.833q-3.186,0-3.186,7.019,0,6.567,3.125,6.567,3.076,0,3.076-6.677Q103.18-15.54,100.165-15.54ZM122.725-3.6l-3.125.049q-.208,0-.244-.049a.42.42,0,0,1-.037-.22v-1.99q0-.244.281-.244l3.125.049h.6v-3.5l-.049-2.246q0-.2.049-.232a.492.492,0,0,1,.244-.037l3.43.049h3.2v-3.333h-5.127a22.164,22.164,0,0,1-2.93,3.577q-.354.4-.525.4-.134,0-.5-.476a5.339,5.339,0,0,0-1.392-1.355,18.215,18.215,0,0,0,4.626-6.042A7.892,7.892,0,0,0,125-21.033q1.587.317,2.4.549.452.159.452.427,0,.183-.305.476a2.738,2.738,0,0,0-.635.9l-.5,1.074h10.327l3.43-.049q.2,0,.232.049a.42.42,0,0,1,.037.22v1.855q0,.2-.049.232a.42.42,0,0,1-.22.037l-3.43-.049h-3.845v3.333h2.673l3.418-.049q.256,0,.256.269v1.88q0,.269-.256.269l-3.418-.049h-2.673v3.65h5.3l3.125-.049q.269,0,.269.244v1.99a.367.367,0,0,1-.043.226.367.367,0,0,1-.226.043L138.192-3.6h-5.3V-2.38l.049,4.077q0,.2-.061.244a.381.381,0,0,1-.22.037H130.44q-.22,0-.256-.061a.381.381,0,0,1-.037-.22L130.2-2.38V-3.6Zm3.247-2.4H130.2v-3.65h-4.224ZM167.845-18.9a13.48,13.48,0,0,0,.476-2.124,16.419,16.419,0,0,1,2.478.6q.525.159.525.4a.73.73,0,0,1-.256.5,3.321,3.321,0,0,0-.671,1.27q-.183.5-.574,1.379H174.5l2.515-.049q.305,0,.305.293-.049.708-.049,2.075a89.934,89.934,0,0,1-.72,12.671,5.016,5.016,0,0,1-1.282,2.966,3.658,3.658,0,0,1-2.5.83l-.9.012q-.574,0-.989-.037a1.213,1.213,0,0,1-.684-.159,1.977,1.977,0,0,1-.22-.684,8.085,8.085,0,0,0-.72-1.917,20.937,20.937,0,0,0,2.832.244h.366q1.172,0,1.575-2.148a77.14,77.14,0,0,0,.623-11.78H168.7a25.076,25.076,0,0,1-2.124,3.125q-.378.452-.525.452-.11,0-.525-.452a8.71,8.71,0,0,0-.879-.781v5.176L164.7.049a.4.4,0,0,1-.043.238.367.367,0,0,1-.226.043H162.5q-.208,0-.244-.049a.456.456,0,0,1-.037-.232v-1.2h-3.577v1.9q0,.208-.061.256a.492.492,0,0,1-.244.037h-1.892q-.208,0-.244-.049a.492.492,0,0,1-.037-.244l.049-7.41v-4.321l-.049-5.725q0-.2.049-.232a.456.456,0,0,1,.232-.037l2.124.049a26.077,26.077,0,0,0,.769-2.625,11.975,11.975,0,0,0,.208-1.428q1.294.146,2.576.4.354.073.354.33a.534.534,0,0,1-.232.391,1.326,1.326,0,0,0-.342.549q-.085.22-.452,1.257-.244.7-.4,1.123h.842l2.527-.049q.208,0,.244.049a.42.42,0,0,1,.037.22l-.049,3.442A18.509,18.509,0,0,0,167.845-18.9Zm-9.2,15.5h3.577V-8.032h-3.577Zm3.577-11.3h-3.577v4.419h3.577Zm6.494,3.467a.748.748,0,0,1,.281-.122q.049,0,.2.146a20.533,20.533,0,0,1,3.076,4.626.562.562,0,0,1,.073.22q0,.122-.269.305l-1.55,1.074a.641.641,0,0,1-.256.159q-.1,0-.171-.22a22.089,22.089,0,0,0-2.93-4.834.382.382,0,0,1-.085-.183q0-.085.256-.269Zm31.826-4.419a53.6,53.6,0,0,1-5.444,9.021,38.169,38.169,0,0,0,4.468-1.477l.33,2a43.707,43.707,0,0,1-7.422,2.258l-.635-1.88a42,42,0,0,0,4.1-5.8l-3.442.671-.635-1.868a41.17,41.17,0,0,0,4.236-7.983l1.99.879a43.107,43.107,0,0,1-3.418,6.519,16.456,16.456,0,0,0,2.527-.549,22.281,22.281,0,0,0,1.416-2.82Zm13.281,4.98L212.463-9a36.341,36.341,0,0,0-6.03-3.723,31.116,31.116,0,0,1-6.323,3.8l-1.074-1.9a24.522,24.522,0,0,0,9.656-7.153h-8.423v-2.1h11.023v2.1a21.2,21.2,0,0,1-3.2,3.784A35.531,35.531,0,0,1,213.818-10.669ZM213.233.7H199.817V-1.4h5.493V-6.47h-4.651V-8.545h11.4V-6.47h-4.553V-1.4h5.725ZM199.89-2.2A60.757,60.757,0,0,1,192.163.9l-.574-2.1a60.181,60.181,0,0,0,7.8-3.076Zm49.953-10.95-1.379,1.721a10.421,10.421,0,0,1-1.672-1.2v1.392H239.04v-1.648a13.332,13.332,0,0,1-1.978,1.575l-1.27-1.721a18.783,18.783,0,0,0,6.3-7.825l2.051.647a2.057,2.057,0,0,1-.281.684A18.378,18.378,0,0,0,249.843-13.147Zm-3.711-.159a25.423,25.423,0,0,1-3.369-4.248,25.345,25.345,0,0,1-3.271,4.248Zm-9.814,2.686q-.049,3.406-.189,6.464a18.508,18.508,0,0,1-.391,3.766A2.262,2.262,0,0,1,234.9.732a3.655,3.655,0,0,1-2.026.415h-1.392l-.623-2.124q.623.061,1.55.061a1.8,1.8,0,0,0,1.025-.2,1.178,1.178,0,0,0,.366-.525,16.631,16.631,0,0,0,.238-2.655q.116-2.325.116-4.34h-6.018l.879-8.594,2.014.354-.623,6.25h2.576l.476-7.41h-5.469V-20h7.739l-.6,9.375ZM243.96-2.8l-1.978.5a34.165,34.165,0,0,0-1.172-7.629l2-.549A37.751,37.751,0,0,1,243.96-2.8ZM249.538.7H236.465V-1.355h7.654a35.327,35.327,0,0,0,2.417-8.9l2.051.574a44.277,44.277,0,0,1-2.295,8.325h3.247Zm-8.948-3.247-2.026.476a30.322,30.322,0,0,0-1.7-7.5l1.917-.635A34.745,34.745,0,0,1,240.591-2.551ZM233.718-4.6a41.532,41.532,0,0,1-5.359,2.051l-.72-1.929a32.935,32.935,0,0,0,5.322-1.99Zm39.821-11.157-3.455.049a.386.386,0,0,1-.244-.049.42.42,0,0,1-.037-.22v-1.88q0-.2.061-.232a.381.381,0,0,1,.22-.037l3.455.049h2.722v-.146a17.385,17.385,0,0,0-.146-2.649q1.733.049,2.539.146.427.037.427.269a1.165,1.165,0,0,1-.146.5,5.454,5.454,0,0,0-.171,1.733v.146h3.516l3.43-.049q.22,0,.256.049a.42.42,0,0,1,.037.22v1.88q0,.2-.049.232a.492.492,0,0,1-.244.037l-3.43-.049h-3.516v1.941h2.246l3.369-.049a.386.386,0,0,1,.244.049.456.456,0,0,1,.037.232l-.049,1.99v2.551l.049,1.99a.4.4,0,0,1-.043.238.4.4,0,0,1-.238.043l-3.369-.049h-2.527a10.57,10.57,0,0,1-.574,2.551,13.133,13.133,0,0,1-.72,1.526Q280.412-1.135,286.43-.9A6.515,6.515,0,0,0,285.685.9a1.754,1.754,0,0,1-.183.623.468.468,0,0,1-.378.122q-.1,0-.391-.012a20.381,20.381,0,0,1-9.07-2.515,13.9,13.9,0,0,1-4.98,2.563,2.533,2.533,0,0,1-.549.122q-.269,0-.549-.623a5.114,5.114,0,0,0-1-1.587,13.542,13.542,0,0,0,5.029-1.941,13.848,13.848,0,0,1-2.4-2.734.445.445,0,0,1-.085-.2q0-.1.269-.244l1.27-.732a.7.7,0,0,1,.281-.11q.1,0,.22.159a11.247,11.247,0,0,0,1.978,2.124q.11-.183.452-.916a9.156,9.156,0,0,0,.439-1.831h-1.868l-3.357.049q-.2,0-.232-.049a.456.456,0,0,1-.037-.232l.049-1.99V-11.6l-.049-1.99q0-.208.049-.244a.42.42,0,0,1,.22-.037l3.357.049h2.1v-1.941Zm5.139,6.812h3.479V-11.67h-3.394Zm-2.417-2.722H272.99v2.722h3.223Q276.262-10.547,276.262-11.67Zm-13.623.391a22.463,22.463,0,0,0,4.529-8,7.622,7.622,0,0,0,.378-1.77,22.288,22.288,0,0,1,2.393.745q.427.2.427.378a.575.575,0,0,1-.281.452,2.384,2.384,0,0,0-.525,1,35.53,35.53,0,0,1-1.367,3.32V-2.124l.049,3.8a.386.386,0,0,1-.049.244.456.456,0,0,1-.232.037h-2.075q-.2,0-.232-.049a.456.456,0,0,1-.037-.232l.049-3.8v-5.75q0-.9.049-3.052-.562.806-1.453,1.868-.256.33-.427.33t-.293-.452A5.994,5.994,0,0,0,262.638-11.279Zm50.625-4.993h-3.052a20.578,20.578,0,0,1-2.148,2.722q-.366.4-.5.4t-.525-.427a7,7,0,0,0-1.282-1.1,15.147,15.147,0,0,0,2.148-2.393,13.962,13.962,0,0,0,1.184-2.209,6.955,6.955,0,0,0,.549-1.672q1.2.281,2.2.623.378.146.378.354a.563.563,0,0,1-.256.415,2.6,2.6,0,0,0-.549.928,2.548,2.548,0,0,1-.171.378h8.057a1.215,1.215,0,0,0,.5-.073.951.951,0,0,1,.342-.122,2.269,2.269,0,0,1,1.1.525q.781.61.781.842a.475.475,0,0,1-.171.378,3.536,3.536,0,0,0-.427.671q-.72,1.208-1,1.6-.366.476-.525.476a1.739,1.739,0,0,1-.6-.22,6.3,6.3,0,0,0-1.526-.476,8.048,8.048,0,0,0,1.221-1.624h-3.223v3.625l.073,3.7a3.712,3.712,0,0,1-.183,1.331,1.919,1.919,0,0,1-.623.793,2.448,2.448,0,0,1-1.1.464,17.566,17.566,0,0,1-2.124.085,1.177,1.177,0,0,1-.671-.11,1.56,1.56,0,0,1-.208-.61,4.286,4.286,0,0,0-.7-1.6,16.718,16.718,0,0,0,1.929.1,1.423,1.423,0,0,0,.879-.2.846.846,0,0,0,.22-.659Zm-8-.5v7.422l.049,2.747a.386.386,0,0,1-.049.244.456.456,0,0,1-.232.037H303q-.208,0-.244-.049a.456.456,0,0,1-.037-.232l.049-2.747V-10.73q0-1,.049-2.844a14.644,14.644,0,0,1-1.892,2.148q-.305.305-.452.305-.171,0-.4-.5a6.572,6.572,0,0,0-1-1.758,17.1,17.1,0,0,0,4.8-5.969,7.434,7.434,0,0,0,.647-1.672,12.763,12.763,0,0,1,2.148.818q.4.159.4.4,0,.159-.281.4a2.563,2.563,0,0,0-.574.842A14.587,14.587,0,0,1,305.267-16.772ZM315.546,1.1q-1.086.574-4.858.574-3.3,0-4.175-.525A2.3,2.3,0,0,1,305.695-.9V-3.5a11.541,11.541,0,0,0-.146-1.917q1.233.024,2.576.171.476.073.476.244a.743.743,0,0,1-.134.4,2.292,2.292,0,0,0-.171,1.074V-1.77q0,.757.354.964a5.878,5.878,0,0,0,2.271.281A6.54,6.54,0,0,0,313.9-.952q.61-.378.647-2.075a9.569,9.569,0,0,0,1.88.623,1.9,1.9,0,0,1,.488.159.229.229,0,0,1,.11.22,2.949,2.949,0,0,1-.049.4A3.6,3.6,0,0,1,315.546,1.1Zm1.294-14.368a.6.6,0,0,1-.037-.146q0-.122.989-.513a5.292,5.292,0,0,1,.964-.317q.11,0,.183.171a19,19,0,0,0,1.428,2.734,22.652,22.652,0,0,0,1.575,2.112,10.664,10.664,0,0,0-1.379,1.1q-.378.378-.525.378-.122,0-.452-.476A28.314,28.314,0,0,1,316.84-13.269ZM303.961-4.321q.208.073.208.2a.384.384,0,0,1-.037.146A17.777,17.777,0,0,1,301.862.769q-.11.159-.2.159a.356.356,0,0,1-.183-.073L299.713-.4q-.134-.1-.134-.183a.382.382,0,0,1,.085-.183,12.384,12.384,0,0,0,2.1-4.1q.049-.208.183-.208a.668.668,0,0,1,.146.024ZM321.784-.928a.4.4,0,0,1,.061.183q0,.1-.183.2l-1.978,1.1a.393.393,0,0,1-.171.061q-.11,0-.171-.183a21.328,21.328,0,0,0-2.625-4.7.382.382,0,0,1-.085-.183q0-.085.159-.171l1.746-.818a.469.469,0,0,1,.183-.061.358.358,0,0,1,.244.159A23.256,23.256,0,0,1,321.784-.928Zm-8.02-2.295a.326.326,0,0,1,.085.171q0,.1-.159.208l-1.672,1.013a.361.361,0,0,1-.183.1q-.073,0-.171-.159A14.8,14.8,0,0,0,309.369-4.8q-.11-.11-.11-.171t.159-.159l1.526-.879a.512.512,0,0,1,.208-.049.378.378,0,0,1,.256.134A16.43,16.43,0,0,1,313.764-3.223ZM306.464-9a12.7,12.7,0,0,0,2.625-3.7,8.361,8.361,0,0,0,.525-1.6q1.135.354,2,.72.4.171.4.452a.459.459,0,0,1-.232.342,2.819,2.819,0,0,0-.5.854,15.091,15.091,0,0,1-2.368,3.772q-.391.427-.5.427a1.561,1.561,0,0,1-.574-.378A6.905,6.905,0,0,0,306.464-9Zm41.506-9.9a13.477,13.477,0,0,0,.476-2.124,16.419,16.419,0,0,1,2.478.6q.525.159.525.4a.73.73,0,0,1-.256.5,3.321,3.321,0,0,0-.671,1.27q-.183.5-.574,1.379h4.675l2.515-.049q.305,0,.305.293-.049.708-.049,2.075a89.936,89.936,0,0,1-.72,12.671,5.016,5.016,0,0,1-1.282,2.966,3.658,3.658,0,0,1-2.5.83l-.9.012q-.574,0-.989-.037a1.213,1.213,0,0,1-.684-.159,1.978,1.978,0,0,1-.22-.684,8.086,8.086,0,0,0-.72-1.917,20.937,20.937,0,0,0,2.832.244h.366q1.172,0,1.575-2.148a77.14,77.14,0,0,0,.623-11.78h-5.945a25.079,25.079,0,0,1-2.124,3.125q-.378.452-.525.452-.11,0-.525-.452a8.71,8.71,0,0,0-.879-.781v5.176l.049,7.08a.4.4,0,0,1-.043.238.367.367,0,0,1-.226.043h-1.929q-.208,0-.244-.049a.456.456,0,0,1-.037-.232v-1.2h-3.577v1.9q0,.208-.061.256a.492.492,0,0,1-.244.037h-1.892q-.208,0-.244-.049a.492.492,0,0,1-.037-.244l.049-7.41v-4.321l-.049-5.725q0-.2.049-.232a.456.456,0,0,1,.232-.037l2.124.049a26.077,26.077,0,0,0,.769-2.625,11.978,11.978,0,0,0,.208-1.428q1.294.146,2.576.4.354.073.354.33a.534.534,0,0,1-.232.391,1.326,1.326,0,0,0-.342.549q-.085.22-.452,1.257-.244.7-.4,1.123h.842l2.527-.049q.208,0,.244.049a.42.42,0,0,1,.037.22l-.049,3.442A18.51,18.51,0,0,0,347.97-18.9Zm-9.2,15.5h3.577V-8.032h-3.577Zm3.577-11.3h-3.577v4.419h3.577Zm6.494,3.467a.748.748,0,0,1,.281-.122q.049,0,.2.146a20.533,20.533,0,0,1,3.076,4.626.562.562,0,0,1,.073.22q0,.122-.269.305l-1.55,1.074a.641.641,0,0,1-.256.159q-.1,0-.171-.22a22.088,22.088,0,0,0-2.93-4.834.382.382,0,0,1-.085-.183q0-.085.256-.269Zm23.733,5.579a15.662,15.662,0,0,0,6.97-4.053,6.135,6.135,0,0,0,.9-1.27q1.184.232,2.173.525.4.134.4.342,0,.171-.269.354a2.825,2.825,0,0,0-.635.6h6.3a1.571,1.571,0,0,0,.6-.073,1.29,1.29,0,0,1,.427-.122q.317,0,1,.623.623.562.623.806a.4.4,0,0,1-.2.342,2.206,2.206,0,0,0-.574.549,23.986,23.986,0,0,1-6.506,5.957,26.708,26.708,0,0,1-9.351,3.04,4.322,4.322,0,0,1-.476.049.42.42,0,0,1-.354-.159,2.592,2.592,0,0,1-.269-.488,6.942,6.942,0,0,0-1-1.575,31.676,31.676,0,0,0,8.826-2.271,19.1,19.1,0,0,0-2.539-1.929q-.159-.1-.159-.171t.208-.256l1.221-.916a.521.521,0,0,1,.293-.159.748.748,0,0,1,.281.122,27.537,27.537,0,0,1,2.93,2.075A17.563,17.563,0,0,0,387.169-7.1h-6.982a19,19,0,0,1-5.273,3.2,4.1,4.1,0,0,1-.6.171q-.2,0-.549-.6A5.032,5.032,0,0,0,372.569-5.652Zm17.9-10.6h-.952A12.734,12.734,0,0,0,391.88-14a17.582,17.582,0,0,0,2.612,1.5,5.688,5.688,0,0,0-.952,1.5q-.256.549-.452.549a1.241,1.241,0,0,1-.549-.281,13.26,13.26,0,0,1-3.894-4.041q.012,1.733.061,3.149.037,1.074.037,1.1,0,.2-.049.232a.456.456,0,0,1-.232.037h-1.843q-.256,0-.256-.269,0-.11.024-.659.061-1.685.085-3.613a11.235,11.235,0,0,1-3,3.589,1.731,1.731,0,0,1-.574.354q-.208,0-.549-.525a5.329,5.329,0,0,0-1.025-1.074,11.985,11.985,0,0,0,4.224-3.8q-1.062.012-1.88.037l-.574.012q-.2,0-.232-.049a.456.456,0,0,1-.037-.232v-1.575q0-.2.049-.232a.381.381,0,0,1,.22-.037l2.979.049h.342V-18.7a14,14,0,0,0-.146-2.075q1.465.049,2.368.122.305.037.305.281l-.122.378a4.15,4.15,0,0,0-.122,1.27v.452h1.77l2.979-.049q.2,0,.232.049a.42.42,0,0,1,.037.22v1.575q0,.208-.049.244a.42.42,0,0,1-.22.037ZM376.39-18.726a13.515,13.515,0,0,0-.122-2.051q1.392.037,2.295.122.354.049.354.256a.651.651,0,0,1-.061.232.866.866,0,0,0-.061.171,5.2,5.2,0,0,0-.122,1.318v.4h.146l2.82-.049a.386.386,0,0,1,.244.049.42.42,0,0,1,.037.22v1.575q0,.208-.049.244a.456.456,0,0,1-.232.037l-.305-.012q-.891-.024-2.039-.037a10.156,10.156,0,0,0,2.893,2.368,6.242,6.242,0,0,0-.916,1.074q-.342.525-.476.525-.11,0-.525-.378a9.074,9.074,0,0,1-1.685-2.112q.037,1.758.085,3.3.024,1.025.024,1.123,0,.22-.049.256a.359.359,0,0,1-.232.049h-1.794q-.183,0-.22-.061a.492.492,0,0,1-.037-.244q0-.122.073-4.053a13.372,13.372,0,0,1-3.345,4.028,1.335,1.335,0,0,1-.525.33q-.159,0-.452-.549a6.4,6.4,0,0,0-1.025-1.379,13.171,13.171,0,0,0,4.553-4.272h-.757l-2.844.049a.386.386,0,0,1-.244-.049.456.456,0,0,1-.037-.232v-1.575q0-.2.061-.232a.381.381,0,0,1,.22-.037l2.844.049h1.5Zm49.1-1.1,2.771-.049q.208,0,.244.049a.456.456,0,0,1,.037.232l-.049,2.917v6.6l.049,2.917a.464.464,0,0,1-.043.256q-.043.049-.238.049L425.488-6.9h-3.54l-2.307.024a16.559,16.559,0,0,1,2.429,2.82.488.488,0,0,1,.073.2q0,.11-.22.256l-1.453.9a.779.779,0,0,1-.33.146q-.1,0-.2-.171a13.276,13.276,0,0,0-2.5-3.247.311.311,0,0,1-.1-.183q0-.11.22-.244l1.331-.781.049-2.893v-6.6l-.049-2.917q0-.208.061-.244a.492.492,0,0,1,.244-.037l2.747.049Zm.635,10.876v-1.746h-4.834v1.746Zm-4.834-8.826v1.7h4.834v-1.7Zm0,5.225h4.834v-1.672h-4.834Zm-9.277-8.325q1.538.049,2.429.122.33.037.33.256,0,.012-.1.391a5.067,5.067,0,0,0-.134,1.428v1.1h.33l2.771-.049a.445.445,0,0,1,.269.049.456.456,0,0,1,.037.232v1.77q0,.208-.061.244a.492.492,0,0,1-.244.037l-2.771-.049h-.049a12.451,12.451,0,0,0,3.442,3.613,6.473,6.473,0,0,0-.867,1.477q-.232.525-.4.525t-.5-.378a12.259,12.259,0,0,1-2.051-2.771q.024,1.868.085,4.15.037,1.587.037,1.758a.415.415,0,0,1-.049.256.42.42,0,0,1-.22.037h-1.9q-.2,0-.232-.049a.492.492,0,0,1-.037-.244q0-.146.024-.952.049-2.478.073-4.456a13.713,13.713,0,0,1-3,3.821.988.988,0,0,1-.5.305q-.208,0-.5-.549a5.453,5.453,0,0,0-1.074-1.477,14.57,14.57,0,0,0,4.626-5.066h-.83l-2.82.049a.386.386,0,0,1-.244-.049.456.456,0,0,1-.037-.232v-1.77q0-.208.061-.244a.381.381,0,0,1,.22-.037l2.82.049h1.233v-1.074A11.857,11.857,0,0,0,412.012-20.874Zm10.608,17.5a6.141,6.141,0,0,0,1.88.72q.574.11.574.4a4.731,4.731,0,0,1-.049.476A5.546,5.546,0,0,1,424.487.1a2.3,2.3,0,0,1-.842.806,4.948,4.948,0,0,1-1.941.525q-.964.1-2.905.1-3.357,0-4.175-.549a2.4,2.4,0,0,1-.854-2.124V-3.955a15,15,0,0,0-.146-2.075,23.006,23.006,0,0,1,2.539.134q.452.061.452.269a1.067,1.067,0,0,1-.1.4,2.9,2.9,0,0,0-.171,1.123V-2q0,.769.354.977a5.786,5.786,0,0,0,2.319.281A6.932,6.932,0,0,0,422-1.123Q422.583-1.55,422.62-3.369Zm4.675-2.4a19.672,19.672,0,0,1,2.722,4.5.384.384,0,0,1,.037.146q0,.134-.269.293l-1.672.977a.713.713,0,0,1-.317.146q-.11,0-.183-.22a16.873,16.873,0,0,0-2.576-4.7.391.391,0,0,1-.11-.208q0-.085.293-.244l1.55-.793a.739.739,0,0,1,.269-.085Q427.161-5.957,427.3-5.774Zm-17.48.33q.061-.22.159-.22a1.239,1.239,0,0,1,.293.085l1.575.6q.305.122.305.269a.708.708,0,0,1-.037.183,19.047,19.047,0,0,1-2.246,4.98q-.1.171-.2.171A.507.507,0,0,1,409.363.5l-1.5-1.025q-.256-.183-.256-.293a.344.344,0,0,1,.11-.208A14.082,14.082,0,0,0,409.815-5.444Zm54.421,1.05a4.8,4.8,0,0,0,1.4.964,2.842,2.842,0,0,1,.537.33.429.429,0,0,1,.122.317,4.3,4.3,0,0,1-.061.513q-.586,3.894-2.832,3.894-2.515,0-4.626-3.918a19.5,19.5,0,0,1-4.517,3.711,1.887,1.887,0,0,1-.6.281q-.183,0-.525-.525a5.958,5.958,0,0,0-1.282-1.318,19.444,19.444,0,0,0,5.8-4.7,31.5,31.5,0,0,1-1.819-9.57h-7.7v3.21h3.6l2.124-.049q.305,0,.305.33-.024.366-.061,1.538-.037.806-.061,1.208a23.364,23.364,0,0,1-.574,4.651,2.827,2.827,0,0,1-2.905,2.075,12.745,12.745,0,0,1-1.282-.049q-.452-.037-.549-.159a2.089,2.089,0,0,1-.171-.671,5.14,5.14,0,0,0-.6-1.794,13.191,13.191,0,0,0,2.051.2,1.122,1.122,0,0,0,1.2-.9,20.9,20.9,0,0,0,.378-4.016h-3.5a33.423,33.423,0,0,1-.452,4.382,19.09,19.09,0,0,1-1.953,5.847q-.256.476-.415.476-.183,0-.5-.4a7.429,7.429,0,0,0-1.55-1.4,13.655,13.655,0,0,0,1.941-5.53,42.677,42.677,0,0,0,.354-6.042l-.049-5.017q0-.22.061-.269a.492.492,0,0,1,.244-.037l3.345.049h6.653v-.525a30.1,30.1,0,0,0-.208-3.528q2.136.11,2.7.183.378.037.378.293a1.4,1.4,0,0,1-.122.476,6.786,6.786,0,0,0-.134,1.733q0,.415.012.769v.6h3.748l3.32-.049q.2,0,.244.061a.456.456,0,0,1,.037.232v1.917q0,.2-.049.232a.456.456,0,0,1-.232.037l-3.32-.049h-3.674a31.564,31.564,0,0,0,1.025,7.068,21.708,21.708,0,0,0,1.5-2.93,12.9,12.9,0,0,0,.671-2.295,12.564,12.564,0,0,1,2.319.891q.378.183.378.4,0,.122-.354.525a4.538,4.538,0,0,0-.623,1.233,28.366,28.366,0,0,1-2.844,5.066,9.2,9.2,0,0,0,1.538,2.393q.684.732,1.135.732t.708-.769A11.966,11.966,0,0,0,464.236-4.395ZM461.916-20.63a11.472,11.472,0,0,1,2.148,2.1.413.413,0,0,1,.1.22q0,.122-.22.256l-1.208.9a.994.994,0,0,1-.317.171q-.073,0-.208-.171a9.724,9.724,0,0,0-2.026-2.2q-.146-.146-.146-.232,0-.061.208-.22l1.147-.806a.617.617,0,0,1,.293-.134A.442.442,0,0,1,461.916-20.63Zm21.657,4.077-3.223.049a.386.386,0,0,1-.244-.049.578.578,0,0,1-.037-.256v-1.624q0-.2.049-.232a.456.456,0,0,1,.232-.037l3.223.049h5.652v-.122A10.522,10.522,0,0,0,489.042-21q1.6.037,2.7.171.4.037.4.269A1.543,1.543,0,0,1,492-20.1a3.837,3.837,0,0,0-.146,1.306v.146h6.116L501.2-18.7q.2,0,.232.049a.42.42,0,0,1,.037.22v1.624a.445.445,0,0,1-.049.269.42.42,0,0,1-.22.037l-3.235-.049H491.85v1.331H494.6l3.43-.049q.2,0,.232.049a.42.42,0,0,1,.037.22l-.049,2.454v4.468l.049,2.49q0,.244-.269.244L494.6-5.4h-7.8l-3.418.049a.445.445,0,0,1-.269-.049.319.319,0,0,1-.037-.2l.049-2.49v-4.468L483.073-15q0-.2.049-.232a.578.578,0,0,1,.256-.037l3.418.049h2.429v-1.331Zm12.195,9.534v-1.16H485.576v1.16ZM485.576-9.8h10.193v-1.123H485.576Zm10.193-3.772H485.576v1.123h10.193ZM483.1-2.2l-3.149.049q-.208,0-.244-.061a.456.456,0,0,1-.037-.232V-4.1q0-.2.049-.232a.456.456,0,0,1,.232-.037l3.149.049h15.32l3.149-.049a.386.386,0,0,1,.244.049.42.42,0,0,1,.037.22v1.66a.431.431,0,0,1-.043.244q-.043.049-.238.049L498.417-2.2h-3.955a17.275,17.275,0,0,0,7.153,2,7.859,7.859,0,0,0-.928,1.575,1.741,1.741,0,0,1-.305.537.493.493,0,0,1-.342.11,3.3,3.3,0,0,1-.5-.049,19.009,19.009,0,0,1-7.08-2.747q-.159-.1-.159-.159t.244-.244L493.84-2.2h-6.494q.269.159.708.476l.61.427q.33.22.33.427,0,.244-.378.342a10.622,10.622,0,0,0-.977.427,21.256,21.256,0,0,1-5.847,2,3.951,3.951,0,0,1-.574.073q-.244,0-.549-.647a6.052,6.052,0,0,0-1-1.477,20.166,20.166,0,0,0,6.274-1.575,5.741,5.741,0,0,0,.781-.476Z" transform="translate(1373 214)" fill="#fff"/>
    <path id="The_Team" data-name="The Team" d="M8.57-9.625H5.352V0H3.492V-9.625H.281V-11.2H8.57ZM17.117,0H15.3V-4.375q0-2.375-1.586-2.375a1.659,1.659,0,0,0-1.344.688A2.737,2.737,0,0,0,11.828-4.3V0h-1.82V-11.844h1.82v5.172h.031a2.862,2.862,0,0,1,2.594-1.516q2.664,0,2.664,3.258Zm8.977-3.508H20.641A2.305,2.305,0,0,0,21.324-1.8a2.543,2.543,0,0,0,1.793.6,3.954,3.954,0,0,0,2.352-.766V-.5a5.373,5.373,0,0,1-2.891.688A3.578,3.578,0,0,1,19.809-.9a4.359,4.359,0,0,1-1-3.066A4.263,4.263,0,0,1,19.91-7.012a3.616,3.616,0,0,1,2.746-1.176A3.153,3.153,0,0,1,25.2-7.133a4.379,4.379,0,0,1,.9,2.93Zm-1.75-1.281a2.336,2.336,0,0,0-.461-1.52,1.54,1.54,0,0,0-1.25-.543,1.759,1.759,0,0,0-1.324.57,2.605,2.605,0,0,0-.668,1.492ZM39.609-9.625H36.391V0H34.531V-9.625H31.32V-11.2h8.289Zm6.656,6.117H40.813A2.305,2.305,0,0,0,41.5-1.8a2.543,2.543,0,0,0,1.793.6,3.954,3.954,0,0,0,2.352-.766V-.5A5.373,5.373,0,0,1,42.75.188,3.578,3.578,0,0,1,39.98-.9a4.359,4.359,0,0,1-1-3.066,4.263,4.263,0,0,1,1.105-3.043,3.616,3.616,0,0,1,2.746-1.176,3.153,3.153,0,0,1,2.539,1.055,4.379,4.379,0,0,1,.9,2.93Zm-1.75-1.281a2.336,2.336,0,0,0-.461-1.52,1.54,1.54,0,0,0-1.25-.543,1.759,1.759,0,0,0-1.324.57,2.605,2.605,0,0,0-.668,1.492ZM54.133,0H52.375V-1.25h-.031A2.647,2.647,0,0,1,49.914.188a2.559,2.559,0,0,1-1.848-.641,2.241,2.241,0,0,1-.668-1.7q0-2.266,2.609-2.641l2.375-.336q0-1.711-1.625-1.711a3.86,3.86,0,0,0-2.578.984V-7.437a5.622,5.622,0,0,1,2.922-.75q3.031,0,3.031,2.984Zm-1.75-3.93L50.7-3.7a2.662,2.662,0,0,0-1.176.379,1.107,1.107,0,0,0-.395.973,1.065,1.065,0,0,0,.363.832,1.407,1.407,0,0,0,.973.324A1.8,1.8,0,0,0,51.84-1.77a2.064,2.064,0,0,0,.543-1.465ZM68.3,0H66.492V-4.359a3.533,3.533,0,0,0-.355-1.82,1.308,1.308,0,0,0-1.2-.562,1.445,1.445,0,0,0-1.207.711,2.9,2.9,0,0,0-.5,1.7V0h-1.82V-4.508q0-2.234-1.578-2.234a1.424,1.424,0,0,0-1.207.672,2.963,2.963,0,0,0-.473,1.742V0H56.344V-8h1.813v1.266h.031a2.771,2.771,0,0,1,2.523-1.453,2.379,2.379,0,0,1,1.449.457,2.276,2.276,0,0,1,.848,1.2,2.855,2.855,0,0,1,2.656-1.656q2.641,0,2.641,3.258Z" transform="translate(1370 132)" fill="#fff"/>
    <path id="momodani" d="M9.375-1.1q.2.024.72-.476t1.233-1.257Q12.5-4.1,13.757-5.225a3.715,3.715,0,0,1,2.112-1.147.988.988,0,0,1,.916.916A7.315,7.315,0,0,1,16.8-3.711,7.794,7.794,0,0,0,16.736-2.6a1.028,1.028,0,0,0,.232.72q.415.415,3.174-1.221a.691.691,0,0,1,.549-.122.238.238,0,0,1,.171.293q-.037.22-.452.464a13.636,13.636,0,0,1-2.783,1.428,1.473,1.473,0,0,1-1.514-.183q-.9-.879-.659-3.1.024-.513-.11-.5a1.674,1.674,0,0,0-.574.378.383.383,0,0,1-.1.073q-.732.61-1.66,1.514A28.547,28.547,0,0,1,10.8-.891q-1.062.842-1.7.647a1.416,1.416,0,0,1-.879-1.392A6.6,6.6,0,0,1,8.606-3.87q.4-1.208.818-2.161.2-.488.317-.806.171-.61-.586-.146A18.387,18.387,0,0,0,7.178-5.505q-1.221,1.013-2.429,2.1L2.808-1.66a5.49,5.49,0,0,0-.513.488l-.366.293Q1.465-.439.757.159A12.257,12.257,0,0,1-.61,1.172q-.659.415-1,.293-.732-.391-.171-1.538A36.679,36.679,0,0,1,1.587-5.64q.977-1.392,1.88-2.808a.187.187,0,0,0,.024-.073q0-.024-.049-.073l-.024-.024A.371.371,0,0,1,3.3-8.984,1.023,1.023,0,0,1,3.54-9.4a3.261,3.261,0,0,1,.452-.342,2.15,2.15,0,0,1,.671-.305.4.4,0,0,1,.488.159q.146.244-.122,1.025A64.21,64.21,0,0,1,1.587-3.394Q1.147-2.734.732-2.1q-.586.879-.439.83a4.176,4.176,0,0,0,.781-.61l.342-.293q1.636-1.44,3.43-2.917A32.9,32.9,0,0,1,8.13-7.507a3.226,3.226,0,0,1,2.222-.745q1,.464.366,2.344-.049.122-.171.439-.22.659-.574,1.66T9.412-1.99Q9.2-1.172,9.375-1.1ZM24.17.439Q22.461,2.1,20.959,1.66T19.507-.94q.049-2.161,3.052-5.652a4.877,4.877,0,0,1,1.831-1.44A.874.874,0,0,1,25.244-8q.293.232.024.916a2.683,2.683,0,0,1-.83.659,1.118,1.118,0,0,1-.513.1,1.3,1.3,0,0,0-.183.012.249.249,0,0,0-.159.11,14.09,14.09,0,0,0-2.82,4.443q-.5,1.685.134,2.283a1.382,1.382,0,0,0,1.709.037,4.315,4.315,0,0,0,1.1-1.1,10.193,10.193,0,0,0,1-1.587q.073-.122.122-.2A.3.3,0,0,0,24.9-2.49q0-.073-.122-.171a3.768,3.768,0,0,1-.757-1.16A1.782,1.782,0,0,1,23.9-5.127a.667.667,0,0,1,.732-.342,1.633,1.633,0,0,1,1.025.562,2.235,2.235,0,0,1,.513,1.538,1.186,1.186,0,0,0,.513,1.013,1.488,1.488,0,0,0,1.025.2,1.7,1.7,0,0,0,.928-.427q.317-.293.452-.159t-.037.452a1.565,1.565,0,0,1-.757.586,2.767,2.767,0,0,1-1.428.269,1.993,1.993,0,0,1-.745-.269.446.446,0,0,0-.317-.134q-.146.012-.293.305-.244.439-.623,1.025A6.862,6.862,0,0,1,24.17.439ZM37.817-1.1q.2.024.72-.476t1.233-1.257Q40.942-4.1,42.2-5.225a3.715,3.715,0,0,1,2.112-1.147.988.988,0,0,1,.916.916,7.315,7.315,0,0,1,.012,1.746A7.794,7.794,0,0,0,45.178-2.6a1.028,1.028,0,0,0,.232.72q.415.415,3.174-1.221a.691.691,0,0,1,.549-.122.238.238,0,0,1,.171.293q-.037.22-.452.464a13.636,13.636,0,0,1-2.783,1.428,1.473,1.473,0,0,1-1.514-.183q-.9-.879-.659-3.1.024-.513-.11-.5a1.674,1.674,0,0,0-.574.378.383.383,0,0,1-.1.073q-.732.61-1.66,1.514A28.546,28.546,0,0,1,39.246-.891q-1.062.842-1.7.647a1.416,1.416,0,0,1-.879-1.392,6.6,6.6,0,0,1,.378-2.234q.4-1.208.818-2.161.2-.488.317-.806.171-.61-.586-.146A18.387,18.387,0,0,0,35.62-5.505q-1.221,1.013-2.429,2.1L31.25-1.66a5.489,5.489,0,0,0-.513.488l-.366.293Q29.907-.439,29.2.159a12.258,12.258,0,0,1-1.367,1.013q-.659.415-1,.293Q26.1,1.074,26.66-.073A36.679,36.679,0,0,1,30.029-5.64q.977-1.392,1.88-2.808a.187.187,0,0,0,.024-.073q0-.024-.049-.073l-.024-.024a.371.371,0,0,1-.122-.366,1.023,1.023,0,0,1,.244-.415,3.261,3.261,0,0,1,.452-.342,2.15,2.15,0,0,1,.671-.305.4.4,0,0,1,.488.159q.146.244-.122,1.025a64.21,64.21,0,0,1-3.442,5.469q-.439.659-.854,1.294-.586.879-.439.83a4.176,4.176,0,0,0,.781-.61l.342-.293q1.636-1.44,3.43-2.917a32.9,32.9,0,0,1,3.284-2.417,3.226,3.226,0,0,1,2.222-.745q1,.464.366,2.344-.049.122-.171.439-.22.659-.574,1.66T37.854-1.99Q37.646-1.172,37.817-1.1ZM52.612.439Q50.9,2.1,49.4,1.66T47.949-.94Q48-3.1,51-6.592a4.877,4.877,0,0,1,1.831-1.44A.874.874,0,0,1,53.687-8q.293.232.024.916a2.683,2.683,0,0,1-.83.659,1.118,1.118,0,0,1-.513.1,1.3,1.3,0,0,0-.183.012.249.249,0,0,0-.159.11,14.09,14.09,0,0,0-2.82,4.443q-.5,1.685.134,2.283A1.382,1.382,0,0,0,51.05.562a4.315,4.315,0,0,0,1.1-1.1,10.193,10.193,0,0,0,1-1.587q.073-.122.122-.2a.3.3,0,0,0,.073-.171q0-.073-.122-.171a3.769,3.769,0,0,1-.757-1.16,1.782,1.782,0,0,1-.122-1.306.667.667,0,0,1,.732-.342,1.633,1.633,0,0,1,1.025.562,2.235,2.235,0,0,1,.513,1.538,1.186,1.186,0,0,0,.513,1.013,1.488,1.488,0,0,0,1.025.2,1.7,1.7,0,0,0,.928-.427q.317-.293.452-.159t-.037.452a1.565,1.565,0,0,1-.757.586,2.767,2.767,0,0,1-1.428.269,1.993,1.993,0,0,1-.745-.269.446.446,0,0,0-.317-.134q-.146.012-.293.305-.244.439-.623,1.025A6.862,6.862,0,0,1,52.612.439Zm14.551-6.86q-1.172,1.172-3.027,2.844T60.3-.4a15.54,15.54,0,0,1-3.479,2.1q-1.5.6-1.941-.4-.269-.9.94-2.881a23.969,23.969,0,0,1,3.235-4.077A20.106,20.106,0,0,1,63.33-9.082a5.7,5.7,0,0,1,4.077-.928,1.954,1.954,0,0,1,.659.293,1.182,1.182,0,0,0,.232.11.312.312,0,0,0,.256-.049,2.18,2.18,0,0,0,.391-.33A17.48,17.48,0,0,0,70.508-11.6a14.8,14.8,0,0,0,1.294-1.88q2.075-3.491,3.3-5.347a39.737,39.737,0,0,1,3.784-4.932,34.721,34.721,0,0,1,3.711-3.662,2.935,2.935,0,0,1,1.05-.549,1.972,1.972,0,0,1,1.1-.049.778.778,0,0,1,.562.745,9.7,9.7,0,0,1-1.611,3.027,60.315,60.315,0,0,1-5.066,6.409q-2.7,2.966-5.115,5.188a16.848,16.848,0,0,0-1.538,1.672A19.323,19.323,0,0,0,70.7-9.033Q68.213-4.907,65.735-.9t-4.15,6.677q-1.672,2.673-1.77,2.8a.647.647,0,0,1-.4.317.275.275,0,0,1-.33-.122q-.1-.171.122-.562Q60.6,5.786,62.671,2.148q3.076-5.4,5.054-8.765.513-.806.391-.732a7.345,7.345,0,0,0-.732.684A2.972,2.972,0,0,1,67.163-6.421ZM77.515-18.481a49.913,49.913,0,0,0,5.176-6.348,6.294,6.294,0,0,0,.659-1.16q.1-.305-.11-.244a2.153,2.153,0,0,0-.586.342q-.378.281-.769.623t-.635.586q-1.294,1.367-2.844,3.308T75.781-17.8a17.13,17.13,0,0,0-1,1.746q-.2.452.049.293a5.554,5.554,0,0,0,.769-.7q.525-.537,1.135-1.2Q77.124-18.091,77.515-18.481ZM67.236-9.033a5.973,5.973,0,0,0-3.955,1.4,27.323,27.323,0,0,0-4.26,3.735,20.689,20.689,0,0,0-2.8,3.552A3.753,3.753,0,0,0,55.8.647q-.061.33.525.012a34.234,34.234,0,0,0,4.785-3.5q3.027-2.527,6.274-5.627.244-.22.22-.354T67.236-9.033ZM84.375-3.32q.659-.342.781-.049t-.464.708a13.55,13.55,0,0,1-2.38,1.086,5.031,5.031,0,0,1-2.6.317q-1.147-.208-1.2-1.843v-.122q.024-.342-.049-.354a1.078,1.078,0,0,0-.415.208A29.86,29.86,0,0,1,72.5-.293q-1.77.61-2.087.049-.391-.781.977-2.429a17.29,17.29,0,0,1,3.528-3.137A10.114,10.114,0,0,1,79.053-7.6,2.372,2.372,0,0,1,81.836-6.03a.47.47,0,0,1-.073.439.74.74,0,0,1-.391.269.7.7,0,0,1-.549-.1,1,1,0,0,1-.427-.415.217.217,0,0,1,.024-.1l.049-.1.049-.1a.1.1,0,0,0,0-.1q-.61-.83-2.1-.244a13.713,13.713,0,0,0-3.149,1.831,29.53,29.53,0,0,0-2.808,2.356Q71.313-1.172,71.387-.928q.1.244,1.929-.806t6.006-3.931a.687.687,0,0,1,.452-.085.548.548,0,0,1,.378.256.582.582,0,0,1,.024.586q-.928,2-.208,2.466a2.522,2.522,0,0,0,2.075.073A10.53,10.53,0,0,0,84.375-3.32ZM82.568.146a24.6,24.6,0,0,1,1.477-2.905q.989-1.709,1.917-3.271.513-.83.879-1.44a.68.68,0,0,1-.146-.415.583.583,0,0,1,.146-.391,2.621,2.621,0,0,1,.928-.757l.049-.024a.537.537,0,0,1,.391,0,.666.666,0,0,1,.464.464v.122a.9.9,0,0,1-.122.439q-.9,1.465-2.014,3.333T84.57-1.318q.586-.562,1.892-1.624t2.612-1.978a4.889,4.889,0,0,1,1.868-.964q.879.024,1,.7a4.635,4.635,0,0,1,0,1.5A4.985,4.985,0,0,0,91.919-2.6a.451.451,0,0,0,.5.452,3.6,3.6,0,0,0,1.55-.732q.317-.2.452-.1a.3.3,0,0,1,.085.33.593.593,0,0,1-.269.378q-2.2,1.392-2.905.525a3.777,3.777,0,0,1-.366-2.966,3.581,3.581,0,0,0-1.538.867q-1.025.818-2.222,1.892-1.05.928-2,1.709A9.862,9.862,0,0,1,83.594.879a.834.834,0,0,1-.83,0A.589.589,0,0,1,82.568.146ZM99.8-11.23q.659.049.61.4a1.182,1.182,0,0,1-.476.708,2.18,2.18,0,0,1-.9.464.567.567,0,0,1-.7-.305.222.222,0,0,1,.037-.232.759.759,0,0,1,.244-.2q.159-.085.281-.159a.757.757,0,0,0,.146-.049q.049-.024.049-.049a.639.639,0,0,1,.22-.439A.63.63,0,0,1,99.8-11.23ZM94.36.366q-.952,0-1.123-.61a2.636,2.636,0,0,1,.159-1.55,12.392,12.392,0,0,1,.916-1.978q.586-1.038,1.172-1.9t.928-1.331a1.207,1.207,0,0,1,.171-.244.857.857,0,0,1,.269-.867,2.6,2.6,0,0,1,.977-.708q.562-.232.806.085a.542.542,0,0,1,.073.513,1.909,1.909,0,0,1-.269.464.8.8,0,0,0-.1.122Q97.412-6.323,96.326-4.7A24.451,24.451,0,0,0,94.7-1.978q-.415.952.525,1.05a7.175,7.175,0,0,0,2.441-.293q1.5-.391,2.759-.842a12.775,12.775,0,0,0,1.5-.6.422.422,0,0,1,.427-.049.289.289,0,0,1,.134.305.685.685,0,0,1-.342.427A20.15,20.15,0,0,1,98.01-.366,15.376,15.376,0,0,1,94.36.366Z" transform="translate(1772 257)" fill="#fff"/>
  </g>
</svg>
