<svg xmlns="http://www.w3.org/2000/svg" width="504.277" height="23.071" viewBox="0 0 504.277 23.071">
  <path id="超过10年的经验使您的梦想成真" d="M8.752-15.405H8.5v2.515H8.85l2.905-.061q.269,0,.269.281A5.673,5.673,0,0,0,14.6-14.648a5.782,5.782,0,0,0,.83-2.808l-2.722.049a.386.386,0,0,1-.244-.049.42.42,0,0,1-.037-.22v-1.7q0-.208.049-.244a.456.456,0,0,1,.232-.037l2.917.049h4.248l2.93-.049q.33,0,.33.305a13.52,13.52,0,0,0-.073,1.392q-.085,4.3-.671,5.457a2.32,2.32,0,0,1-1.55,1.282,10.743,10.743,0,0,1-2.136.146q-.623,0-.732-.122a1.809,1.809,0,0,1-.183-.708,5.859,5.859,0,0,0-.476-1.648,9.031,9.031,0,0,0,1.868.183q.818,0,1.025-.476a12.169,12.169,0,0,0,.4-3.613h-2.7a8.449,8.449,0,0,1-1.184,4.1,7.959,7.959,0,0,1-2.7,2.49,1.956,1.956,0,0,1-.574.2q-.183,0-.525-.549a5.27,5.27,0,0,0-.9-1.074v1.465q0,.208-.049.244a.42.42,0,0,1-.22.037L8.85-10.6H8.679v2.649H9.753L11.45-8a.386.386,0,0,1,.244.049.42.42,0,0,1,.037.22v1.855q0,.244-.281.244l-1.7-.049H8.679v3.7a16.422,16.422,0,0,0,6.274.928,78.7,78.7,0,0,0,9.473-.574A7.385,7.385,0,0,0,23.73.33a1.427,1.427,0,0,1-.256.72,1.587,1.587,0,0,1-.7.134q-3.5.269-7.751.269Q10.083,1.453,7.568,0A9.224,9.224,0,0,1,4.3-2.942,18.312,18.312,0,0,1,3.015,1.1q-.2.5-.378.5-.122,0-.464-.354A3.7,3.7,0,0,0,.72.049,17.112,17.112,0,0,0,2.612-8.069q0-.9-.049-1.453a19.006,19.006,0,0,1,2.1.4q.4.1.4.293a.8.8,0,0,1-.1.354,2.541,2.541,0,0,0-.171,1q-.061,1.233-.134,1.843a7.761,7.761,0,0,0,1.66,2.112V-10.6H4.468l-2.93.049q-.244,0-.244-.281v-1.819a.445.445,0,0,1,.049-.269.319.319,0,0,1,.2-.037l2.93.061H6.042v-2.515H5.115l-2.722.049a.386.386,0,0,1-.244-.049.42.42,0,0,1-.037-.22v-1.807q0-.208.061-.256a.381.381,0,0,1,.22-.037l2.722.049h.928v-.208a21.959,21.959,0,0,0-.171-3.052,24.776,24.776,0,0,1,2.49.183q.415.037.415.244a1.621,1.621,0,0,1-.122.452A7.882,7.882,0,0,0,8.5-17.932v.256h.256l2.673-.049a.445.445,0,0,1,.269.049.492.492,0,0,1,.037.244v1.807q0,.2-.061.232a.492.492,0,0,1-.244.037Zm7.19,5.31h3.589l2.734-.049q.208,0,.244.049a.42.42,0,0,1,.037.22L22.5-7.727v2.979l.049,2.136a.4.4,0,0,1-.043.238.4.4,0,0,1-.238.043L19.531-2.38H15.942l-2.71.049q-.208,0-.244-.049a.456.456,0,0,1-.037-.232L13-4.749V-7.727l-.049-2.148q0-.2.049-.232a.456.456,0,0,1,.232-.037Zm4.236,5.566V-7.971H15.3v3.442ZM44.1-17.7l-1.624,1.428a21.332,21.332,0,0,0-3.955-3.2l1.685-1.379A20.039,20.039,0,0,1,44.1-17.7Zm15.552,3.43H56.428V-4.077a2.033,2.033,0,0,1-.421,1.361,1.771,1.771,0,0,1-.964.616,11.019,11.019,0,0,1-2.032.122q-1.27,0-2.039-.049L50.1-4.248q1.514.1,2.5.1a3.132,3.132,0,0,0,1.355-.165.634.634,0,0,0,.232-.555v-9.4H45.247v-2.161h8.948V-20.52h2.234v4.089h3.223Zm.2,13.049L58.894.952q-2.747.085-5.164.085A54.487,54.487,0,0,1,47.5.812a11.878,11.878,0,0,1-3.009-.83,10.432,10.432,0,0,1-2.612-1.605,17.005,17.005,0,0,1-2.7,3.076L37.6-.122a15.993,15.993,0,0,0,4.59-7.007H38.179V-9.021A39.509,39.509,0,0,0,41.8-13.354H37.947v-2.051h6.348v2.026a35.719,35.719,0,0,1-3.2,4.248h3.235v2.307q-.745,2.075-1.355,3.345A8.357,8.357,0,0,0,45.5-1.9a9.766,9.766,0,0,0,2.57.659q1.2.122,5.011.122Q56.477-1.123,59.846-1.221ZM52.375-7.751,50.544-6.421a32.571,32.571,0,0,0-4.321-5.6l1.782-1.221A33.387,33.387,0,0,1,52.375-7.751ZM80.007-17.9V0H77.175V-14.429a9.022,9.022,0,0,1-1.654.934,13.634,13.634,0,0,1-2.02.677v-2.417q.708-.232,1.367-.488t1.3-.574q.641-.317,1.294-.708t1.349-.891ZM100.559.293a4.888,4.888,0,0,1-4.266-2.234A11.385,11.385,0,0,1,94.761-8.4q0-4.639,1.6-7.019a5.22,5.22,0,0,1,4.614-2.38q5.774,0,5.774,8.972,0,4.443-1.63,6.781A5.244,5.244,0,0,1,100.559.293Zm.281-15.833q-3.186,0-3.186,7.019,0,6.567,3.125,6.567,3.076,0,3.076-6.677Q103.855-15.54,100.84-15.54ZM123.625-3.6l-3.125.049q-.208,0-.244-.049a.42.42,0,0,1-.037-.22v-1.99q0-.244.281-.244l3.125.049h.6v-3.5l-.049-2.246q0-.2.049-.232a.492.492,0,0,1,.244-.037l3.43.049h3.2v-3.333h-5.127a22.164,22.164,0,0,1-2.93,3.577q-.354.4-.525.4-.134,0-.5-.476a5.339,5.339,0,0,0-1.392-1.355,18.215,18.215,0,0,0,4.626-6.042,7.892,7.892,0,0,0,.647-1.831q1.587.317,2.4.549.452.159.452.427,0,.183-.305.476a2.738,2.738,0,0,0-.635.9l-.5,1.074h10.327l3.43-.049q.2,0,.232.049a.42.42,0,0,1,.037.22v1.855q0,.2-.049.232a.42.42,0,0,1-.22.037l-3.43-.049h-3.845v3.333h2.673l3.418-.049q.256,0,.256.269v1.88q0,.269-.256.269l-3.418-.049h-2.673v3.65h5.3l3.125-.049q.269,0,.269.244v1.99a.367.367,0,0,1-.043.226.367.367,0,0,1-.226.043L139.092-3.6h-5.3V-2.38l.049,4.077q0,.2-.061.244a.381.381,0,0,1-.22.037H131.34q-.22,0-.256-.061a.381.381,0,0,1-.037-.22L131.1-2.38V-3.6Zm3.247-2.4H131.1v-3.65h-4.224ZM168.97-18.9a13.48,13.48,0,0,0,.476-2.124,16.419,16.419,0,0,1,2.478.6q.525.159.525.4a.73.73,0,0,1-.256.5,3.321,3.321,0,0,0-.671,1.27q-.183.5-.574,1.379h4.675l2.515-.049q.305,0,.305.293-.049.708-.049,2.075a89.934,89.934,0,0,1-.72,12.671,5.016,5.016,0,0,1-1.282,2.966,3.658,3.658,0,0,1-2.5.83l-.9.012q-.574,0-.989-.037a1.213,1.213,0,0,1-.684-.159,1.977,1.977,0,0,1-.22-.684,8.085,8.085,0,0,0-.72-1.917,20.937,20.937,0,0,0,2.832.244h.366q1.172,0,1.575-2.148a77.14,77.14,0,0,0,.623-11.78h-5.945a25.076,25.076,0,0,1-2.124,3.125q-.378.452-.525.452-.11,0-.525-.452a8.71,8.71,0,0,0-.879-.781v5.176l.049,7.08a.4.4,0,0,1-.043.238.367.367,0,0,1-.226.043h-1.929q-.208,0-.244-.049a.456.456,0,0,1-.037-.232v-1.2h-3.577v1.9q0,.208-.061.256a.492.492,0,0,1-.244.037h-1.892q-.208,0-.244-.049a.492.492,0,0,1-.037-.244l.049-7.41v-4.321l-.049-5.725q0-.2.049-.232a.456.456,0,0,1,.232-.037l2.124.049a26.077,26.077,0,0,0,.769-2.625,11.975,11.975,0,0,0,.208-1.428q1.294.146,2.576.4.354.073.354.33a.534.534,0,0,1-.232.391,1.326,1.326,0,0,0-.342.549q-.085.22-.452,1.257-.244.7-.4,1.123h.842l2.527-.049q.208,0,.244.049a.42.42,0,0,1,.037.22l-.049,3.442A18.509,18.509,0,0,0,168.97-18.9Zm-9.2,15.5h3.577V-8.032h-3.577Zm3.577-11.3h-3.577v4.419h3.577Zm6.494,3.467a.748.748,0,0,1,.281-.122q.049,0,.2.146a20.533,20.533,0,0,1,3.076,4.626.562.562,0,0,1,.073.22q0,.122-.269.305l-1.55,1.074a.641.641,0,0,1-.256.159q-.1,0-.171-.22a22.089,22.089,0,0,0-2.93-4.834.382.382,0,0,1-.085-.183q0-.085.256-.269Zm32.051-4.419a53.6,53.6,0,0,1-5.444,9.021,38.169,38.169,0,0,0,4.468-1.477l.33,2a43.707,43.707,0,0,1-7.422,2.258l-.635-1.88a42,42,0,0,0,4.1-5.8l-3.442.671-.635-1.868a41.17,41.17,0,0,0,4.236-7.983l1.99.879a43.107,43.107,0,0,1-3.418,6.519,16.456,16.456,0,0,0,2.527-.549,22.281,22.281,0,0,0,1.416-2.82Zm13.281,4.98L213.813-9a36.341,36.341,0,0,0-6.03-3.723,31.116,31.116,0,0,1-6.323,3.8l-1.074-1.9a24.522,24.522,0,0,0,9.656-7.153h-8.423v-2.1h11.023v2.1a21.2,21.2,0,0,1-3.2,3.784A35.531,35.531,0,0,1,215.168-10.669ZM214.583.7H201.167V-1.4h5.493V-6.47h-4.651V-8.545h11.4V-6.47h-4.553V-1.4h5.725ZM201.24-2.2A60.757,60.757,0,0,1,193.513.9l-.574-2.1a60.181,60.181,0,0,0,7.8-3.076Zm50.178-10.95-1.379,1.721a10.421,10.421,0,0,1-1.672-1.2v1.392h-7.751v-1.648a13.332,13.332,0,0,1-1.978,1.575l-1.27-1.721a18.783,18.783,0,0,0,6.3-7.825l2.051.647a2.057,2.057,0,0,1-.281.684A18.378,18.378,0,0,0,251.418-13.147Zm-3.711-.159a25.423,25.423,0,0,1-3.369-4.248,25.345,25.345,0,0,1-3.271,4.248Zm-9.814,2.686q-.049,3.406-.189,6.464a18.508,18.508,0,0,1-.391,3.766,2.262,2.262,0,0,1-.836,1.123,3.655,3.655,0,0,1-2.026.415h-1.392l-.623-2.124q.623.061,1.55.061a1.8,1.8,0,0,0,1.025-.2,1.178,1.178,0,0,0,.366-.525,16.631,16.631,0,0,0,.238-2.655q.116-2.325.116-4.34h-6.018l.879-8.594,2.014.354-.623,6.25h2.576l.476-7.41h-5.469V-20h7.739l-.6,9.375ZM245.535-2.8l-1.978.5a34.165,34.165,0,0,0-1.172-7.629l2-.549A37.751,37.751,0,0,1,245.535-2.8ZM251.113.7H238.04V-1.355h7.654a35.327,35.327,0,0,0,2.417-8.9l2.051.574a44.277,44.277,0,0,1-2.295,8.325h3.247Zm-8.948-3.247-2.026.476a30.322,30.322,0,0,0-1.7-7.5l1.917-.635A34.745,34.745,0,0,1,242.166-2.551ZM235.293-4.6a41.532,41.532,0,0,1-5.359,2.051l-.72-1.929a32.935,32.935,0,0,0,5.322-1.99Zm40.046-11.157-3.455.049a.386.386,0,0,1-.244-.049.42.42,0,0,1-.037-.22v-1.88q0-.2.061-.232a.381.381,0,0,1,.22-.037l3.455.049h2.722v-.146a17.385,17.385,0,0,0-.146-2.649q1.733.049,2.539.146.427.037.427.269a1.165,1.165,0,0,1-.146.5,5.454,5.454,0,0,0-.171,1.733v.146h3.516l3.43-.049q.22,0,.256.049a.42.42,0,0,1,.037.22v1.88q0,.2-.049.232a.492.492,0,0,1-.244.037l-3.43-.049h-3.516v1.941h2.246l3.369-.049a.386.386,0,0,1,.244.049.456.456,0,0,1,.037.232l-.049,1.99v2.551l.049,1.99a.4.4,0,0,1-.043.238.4.4,0,0,1-.238.043l-3.369-.049h-2.527a10.57,10.57,0,0,1-.574,2.551,13.133,13.133,0,0,1-.72,1.526Q282.212-1.135,288.23-.9A6.515,6.515,0,0,0,287.485.9a1.754,1.754,0,0,1-.183.623.468.468,0,0,1-.378.122q-.1,0-.391-.012a20.381,20.381,0,0,1-9.07-2.515,13.9,13.9,0,0,1-4.98,2.563,2.533,2.533,0,0,1-.549.122q-.269,0-.549-.623a5.114,5.114,0,0,0-1-1.587,13.542,13.542,0,0,0,5.029-1.941,13.848,13.848,0,0,1-2.4-2.734.445.445,0,0,1-.085-.2q0-.1.269-.244l1.27-.732a.7.7,0,0,1,.281-.11q.1,0,.22.159a11.247,11.247,0,0,0,1.978,2.124q.11-.183.452-.916a9.156,9.156,0,0,0,.439-1.831h-1.868l-3.357.049q-.2,0-.232-.049a.456.456,0,0,1-.037-.232l.049-1.99V-11.6l-.049-1.99q0-.208.049-.244a.42.42,0,0,1,.22-.037l3.357.049h2.1v-1.941Zm5.139,6.812h3.479V-11.67h-3.394Zm-2.417-2.722H274.79v2.722h3.223Q278.062-10.547,278.062-11.67Zm-13.623.391a22.463,22.463,0,0,0,4.529-8,7.622,7.622,0,0,0,.378-1.77,22.288,22.288,0,0,1,2.393.745q.427.2.427.378a.575.575,0,0,1-.281.452,2.384,2.384,0,0,0-.525,1,35.53,35.53,0,0,1-1.367,3.32V-2.124l.049,3.8a.386.386,0,0,1-.049.244.456.456,0,0,1-.232.037h-2.075q-.2,0-.232-.049a.456.456,0,0,1-.037-.232l.049-3.8v-5.75q0-.9.049-3.052-.562.806-1.453,1.868-.256.33-.427.33t-.293-.452A5.994,5.994,0,0,0,264.438-11.279Zm50.85-4.993h-3.052a20.578,20.578,0,0,1-2.148,2.722q-.366.4-.5.4t-.525-.427a7,7,0,0,0-1.282-1.1,15.147,15.147,0,0,0,2.148-2.393,13.962,13.962,0,0,0,1.184-2.209,6.955,6.955,0,0,0,.549-1.672q1.2.281,2.2.623.378.146.378.354a.563.563,0,0,1-.256.415,2.6,2.6,0,0,0-.549.928,2.548,2.548,0,0,1-.171.378h8.057a1.215,1.215,0,0,0,.5-.073.951.951,0,0,1,.342-.122,2.269,2.269,0,0,1,1.1.525q.781.61.781.842a.475.475,0,0,1-.171.378,3.536,3.536,0,0,0-.427.671q-.72,1.208-1,1.6-.366.476-.525.476a1.739,1.739,0,0,1-.6-.22,6.3,6.3,0,0,0-1.526-.476,8.048,8.048,0,0,0,1.221-1.624h-3.223v3.625l.073,3.7a3.712,3.712,0,0,1-.183,1.331,1.919,1.919,0,0,1-.623.793,2.448,2.448,0,0,1-1.1.464,17.566,17.566,0,0,1-2.124.085,1.177,1.177,0,0,1-.671-.11,1.56,1.56,0,0,1-.208-.61,4.286,4.286,0,0,0-.7-1.6,16.718,16.718,0,0,0,1.929.1,1.423,1.423,0,0,0,.879-.2.846.846,0,0,0,.22-.659Zm-8-.5v7.422l.049,2.747a.386.386,0,0,1-.049.244.456.456,0,0,1-.232.037h-2.039q-.208,0-.244-.049a.456.456,0,0,1-.037-.232l.049-2.747V-10.73q0-1,.049-2.844a14.644,14.644,0,0,1-1.892,2.148q-.305.305-.452.305-.171,0-.4-.5a6.572,6.572,0,0,0-1-1.758,17.1,17.1,0,0,0,4.8-5.969,7.434,7.434,0,0,0,.647-1.672,12.763,12.763,0,0,1,2.148.818q.4.159.4.4,0,.159-.281.4a2.563,2.563,0,0,0-.574.842A14.587,14.587,0,0,1,307.292-16.772ZM317.571,1.1q-1.086.574-4.858.574-3.3,0-4.175-.525A2.3,2.3,0,0,1,307.72-.9V-3.5a11.541,11.541,0,0,0-.146-1.917q1.233.024,2.576.171.476.073.476.244a.743.743,0,0,1-.134.4,2.292,2.292,0,0,0-.171,1.074V-1.77q0,.757.354.964a5.878,5.878,0,0,0,2.271.281,6.54,6.54,0,0,0,2.979-.427q.61-.378.647-2.075a9.569,9.569,0,0,0,1.88.623,1.9,1.9,0,0,1,.488.159.229.229,0,0,1,.11.22,2.949,2.949,0,0,1-.049.4A3.6,3.6,0,0,1,317.571,1.1Zm1.294-14.368a.6.6,0,0,1-.037-.146q0-.122.989-.513a5.292,5.292,0,0,1,.964-.317q.11,0,.183.171a19,19,0,0,0,1.428,2.734,22.652,22.652,0,0,0,1.575,2.112,10.664,10.664,0,0,0-1.379,1.1q-.378.378-.525.378-.122,0-.452-.476A28.314,28.314,0,0,1,318.865-13.269ZM305.986-4.321q.208.073.208.2a.384.384,0,0,1-.037.146A17.777,17.777,0,0,1,303.887.769q-.11.159-.2.159a.356.356,0,0,1-.183-.073L301.738-.4q-.134-.1-.134-.183a.382.382,0,0,1,.085-.183,12.384,12.384,0,0,0,2.1-4.1q.049-.208.183-.208a.668.668,0,0,1,.146.024ZM323.809-.928a.4.4,0,0,1,.061.183q0,.1-.183.2l-1.978,1.1a.393.393,0,0,1-.171.061q-.11,0-.171-.183a21.328,21.328,0,0,0-2.625-4.7.382.382,0,0,1-.085-.183q0-.085.159-.171l1.746-.818a.469.469,0,0,1,.183-.061.358.358,0,0,1,.244.159A23.256,23.256,0,0,1,323.809-.928Zm-8.02-2.295a.326.326,0,0,1,.085.171q0,.1-.159.208l-1.672,1.013a.361.361,0,0,1-.183.1q-.073,0-.171-.159A14.8,14.8,0,0,0,311.394-4.8q-.11-.11-.11-.171t.159-.159l1.526-.879a.512.512,0,0,1,.208-.049.378.378,0,0,1,.256.134A16.43,16.43,0,0,1,315.789-3.223ZM308.489-9a12.7,12.7,0,0,0,2.625-3.7,8.361,8.361,0,0,0,.525-1.6q1.135.354,2,.72.4.171.4.452a.459.459,0,0,1-.232.342,2.819,2.819,0,0,0-.5.854,15.091,15.091,0,0,1-2.368,3.772q-.391.427-.5.427a1.561,1.561,0,0,1-.574-.378A6.905,6.905,0,0,0,308.489-9Zm41.731-9.9a13.477,13.477,0,0,0,.476-2.124,16.419,16.419,0,0,1,2.478.6q.525.159.525.4a.73.73,0,0,1-.256.5,3.321,3.321,0,0,0-.671,1.27q-.183.5-.574,1.379h4.675l2.515-.049q.305,0,.305.293-.049.708-.049,2.075a89.936,89.936,0,0,1-.72,12.671,5.016,5.016,0,0,1-1.282,2.966,3.658,3.658,0,0,1-2.5.83l-.9.012q-.574,0-.989-.037a1.213,1.213,0,0,1-.684-.159,1.978,1.978,0,0,1-.22-.684,8.086,8.086,0,0,0-.72-1.917,20.937,20.937,0,0,0,2.832.244h.366q1.172,0,1.575-2.148a77.14,77.14,0,0,0,.623-11.78h-5.945a25.079,25.079,0,0,1-2.124,3.125q-.378.452-.525.452-.11,0-.525-.452a8.71,8.71,0,0,0-.879-.781v5.176l.049,7.08a.4.4,0,0,1-.043.238A.367.367,0,0,1,346.8.33h-1.929q-.208,0-.244-.049a.456.456,0,0,1-.037-.232v-1.2h-3.577v1.9q0,.208-.061.256a.492.492,0,0,1-.244.037h-1.892q-.208,0-.244-.049a.492.492,0,0,1-.037-.244l.049-7.41v-4.321l-.049-5.725q0-.2.049-.232a.456.456,0,0,1,.232-.037l2.124.049a26.077,26.077,0,0,0,.769-2.625,11.978,11.978,0,0,0,.208-1.428q1.294.146,2.576.4.354.073.354.33a.534.534,0,0,1-.232.391,1.326,1.326,0,0,0-.342.549q-.085.22-.452,1.257-.244.7-.4,1.123h.842l2.527-.049q.208,0,.244.049a.42.42,0,0,1,.037.22l-.049,3.442A18.51,18.51,0,0,0,350.22-18.9Zm-9.2,15.5h3.577V-8.032h-3.577Zm3.577-11.3h-3.577v4.419h3.577Zm6.494,3.467a.748.748,0,0,1,.281-.122q.049,0,.2.146a20.533,20.533,0,0,1,3.076,4.626.562.562,0,0,1,.073.22q0,.122-.269.305l-1.55,1.074a.641.641,0,0,1-.256.159q-.1,0-.171-.22a22.088,22.088,0,0,0-2.93-4.834.382.382,0,0,1-.085-.183q0-.085.256-.269Zm23.958,5.579a15.662,15.662,0,0,0,6.97-4.053,6.135,6.135,0,0,0,.9-1.27q1.184.232,2.173.525.4.134.4.342,0,.171-.269.354a2.825,2.825,0,0,0-.635.6h6.3a1.571,1.571,0,0,0,.6-.073,1.29,1.29,0,0,1,.427-.122q.317,0,1,.623.623.562.623.806a.4.4,0,0,1-.2.342,2.206,2.206,0,0,0-.574.549,23.986,23.986,0,0,1-6.506,5.957,26.708,26.708,0,0,1-9.351,3.04,4.322,4.322,0,0,1-.476.049.42.42,0,0,1-.354-.159,2.592,2.592,0,0,1-.269-.488,6.942,6.942,0,0,0-1-1.575,31.676,31.676,0,0,0,8.826-2.271A19.1,19.1,0,0,0,381.1-4.407q-.159-.1-.159-.171t.208-.256l1.221-.916a.521.521,0,0,1,.293-.159.748.748,0,0,1,.281.122,27.537,27.537,0,0,1,2.93,2.075A17.563,17.563,0,0,0,389.644-7.1h-6.982a19,19,0,0,1-5.273,3.2,4.1,4.1,0,0,1-.6.171q-.2,0-.549-.6A5.032,5.032,0,0,0,375.044-5.652Zm17.9-10.6h-.952A12.734,12.734,0,0,0,394.355-14a17.582,17.582,0,0,0,2.612,1.5,5.688,5.688,0,0,0-.952,1.5q-.256.549-.452.549a1.241,1.241,0,0,1-.549-.281,13.26,13.26,0,0,1-3.894-4.041q.012,1.733.061,3.149.037,1.074.037,1.1,0,.2-.049.232a.456.456,0,0,1-.232.037h-1.843q-.256,0-.256-.269,0-.11.024-.659.061-1.685.085-3.613a11.235,11.235,0,0,1-3,3.589,1.731,1.731,0,0,1-.574.354q-.208,0-.549-.525a5.329,5.329,0,0,0-1.025-1.074,11.985,11.985,0,0,0,4.224-3.8q-1.062.012-1.88.037l-.574.012q-.2,0-.232-.049a.456.456,0,0,1-.037-.232v-1.575q0-.2.049-.232a.381.381,0,0,1,.22-.037l2.979.049h.342V-18.7a14,14,0,0,0-.146-2.075q1.465.049,2.368.122.305.037.305.281l-.122.378a4.15,4.15,0,0,0-.122,1.27v.452h1.77l2.979-.049q.2,0,.232.049a.42.42,0,0,1,.037.22v1.575q0,.208-.049.244a.42.42,0,0,1-.22.037Zm-14.075-2.478a13.515,13.515,0,0,0-.122-2.051q1.392.037,2.295.122.354.049.354.256a.651.651,0,0,1-.061.232.866.866,0,0,0-.061.171,5.2,5.2,0,0,0-.122,1.318v.4h.146l2.82-.049a.386.386,0,0,1,.244.049.42.42,0,0,1,.037.22v1.575q0,.208-.049.244a.456.456,0,0,1-.232.037l-.305-.012q-.891-.024-2.039-.037a10.156,10.156,0,0,0,2.893,2.368,6.242,6.242,0,0,0-.916,1.074q-.342.525-.476.525-.11,0-.525-.378a9.074,9.074,0,0,1-1.685-2.112q.037,1.758.085,3.3.024,1.025.024,1.123,0,.22-.049.256a.359.359,0,0,1-.232.049H379.1q-.183,0-.22-.061a.492.492,0,0,1-.037-.244q0-.122.073-4.053a13.372,13.372,0,0,1-3.345,4.028,1.335,1.335,0,0,1-.525.33q-.159,0-.452-.549a6.4,6.4,0,0,0-1.025-1.379,13.171,13.171,0,0,0,4.553-4.272h-.757l-2.844.049a.386.386,0,0,1-.244-.049.456.456,0,0,1-.037-.232v-1.575q0-.2.061-.232a.381.381,0,0,1,.22-.037l2.844.049h1.5Zm49.324-1.1,2.771-.049q.208,0,.244.049a.456.456,0,0,1,.037.232l-.049,2.917v6.6l.049,2.917a.464.464,0,0,1-.043.256q-.043.049-.238.049L428.188-6.9h-3.54l-2.307.024a16.559,16.559,0,0,1,2.429,2.82.488.488,0,0,1,.073.2q0,.11-.22.256l-1.453.9a.779.779,0,0,1-.33.146q-.1,0-.2-.171a13.276,13.276,0,0,0-2.5-3.247.311.311,0,0,1-.1-.183q0-.11.22-.244l1.331-.781.049-2.893v-6.6l-.049-2.917q0-.208.061-.244a.492.492,0,0,1,.244-.037l2.747.049Zm.635,10.876v-1.746h-4.834v1.746Zm-4.834-8.826v1.7h4.834v-1.7Zm0,5.225h4.834v-1.672h-4.834Zm-9.277-8.325q1.538.049,2.429.122.33.037.33.256,0,.012-.1.391a5.067,5.067,0,0,0-.134,1.428v1.1h.33l2.771-.049a.445.445,0,0,1,.269.049.456.456,0,0,1,.037.232v1.77q0,.208-.061.244a.492.492,0,0,1-.244.037l-2.771-.049h-.049a12.451,12.451,0,0,0,3.442,3.613,6.473,6.473,0,0,0-.867,1.477q-.232.525-.4.525t-.5-.378a12.259,12.259,0,0,1-2.051-2.771q.024,1.868.085,4.15.037,1.587.037,1.758a.415.415,0,0,1-.049.256.42.42,0,0,1-.22.037h-1.9q-.2,0-.232-.049a.492.492,0,0,1-.037-.244q0-.146.024-.952.049-2.478.073-4.456a13.713,13.713,0,0,1-3,3.821.988.988,0,0,1-.5.305q-.208,0-.5-.549a5.453,5.453,0,0,0-1.074-1.477,14.57,14.57,0,0,0,4.626-5.066h-.83l-2.82.049a.386.386,0,0,1-.244-.049.456.456,0,0,1-.037-.232v-1.77q0-.208.061-.244a.381.381,0,0,1,.22-.037l2.82.049h1.233v-1.074A11.857,11.857,0,0,0,414.712-20.874Zm10.608,17.5a6.141,6.141,0,0,0,1.88.72q.574.11.574.4a4.731,4.731,0,0,1-.049.476A5.546,5.546,0,0,1,427.188.1a2.3,2.3,0,0,1-.842.806,4.948,4.948,0,0,1-1.941.525q-.964.1-2.905.1-3.357,0-4.175-.549a2.4,2.4,0,0,1-.854-2.124V-3.955a15,15,0,0,0-.146-2.075,23.006,23.006,0,0,1,2.539.134q.452.061.452.269a1.067,1.067,0,0,1-.1.4,2.9,2.9,0,0,0-.171,1.123V-2q0,.769.354.977a5.786,5.786,0,0,0,2.319.281,6.932,6.932,0,0,0,2.979-.378Q425.283-1.55,425.32-3.369ZM430-5.774a19.672,19.672,0,0,1,2.722,4.5.384.384,0,0,1,.037.146q0,.134-.269.293l-1.672.977a.713.713,0,0,1-.317.146q-.11,0-.183-.22a16.873,16.873,0,0,0-2.576-4.7.391.391,0,0,1-.11-.208q0-.085.293-.244l1.55-.793a.739.739,0,0,1,.269-.085Q429.861-5.957,430-5.774Zm-17.48.33q.061-.22.159-.22a1.239,1.239,0,0,1,.293.085l1.575.6q.305.122.305.269a.708.708,0,0,1-.037.183,19.047,19.047,0,0,1-2.246,4.98q-.1.171-.2.171A.507.507,0,0,1,412.063.5l-1.5-1.025q-.256-.183-.256-.293a.344.344,0,0,1,.11-.208A14.082,14.082,0,0,0,412.515-5.444Zm54.646,1.05a4.8,4.8,0,0,0,1.4.964,2.842,2.842,0,0,1,.537.33.429.429,0,0,1,.122.317,4.3,4.3,0,0,1-.061.513q-.586,3.894-2.832,3.894-2.515,0-4.626-3.918a19.5,19.5,0,0,1-4.517,3.711,1.887,1.887,0,0,1-.6.281q-.183,0-.525-.525a5.958,5.958,0,0,0-1.282-1.318,19.444,19.444,0,0,0,5.8-4.7,31.5,31.5,0,0,1-1.819-9.57h-7.7v3.21h3.6l2.124-.049q.305,0,.305.33-.024.366-.061,1.538-.037.806-.061,1.208a23.364,23.364,0,0,1-.574,4.651,2.827,2.827,0,0,1-2.905,2.075,12.745,12.745,0,0,1-1.282-.049q-.452-.037-.549-.159a2.089,2.089,0,0,1-.171-.671,5.14,5.14,0,0,0-.6-1.794,13.191,13.191,0,0,0,2.051.2,1.122,1.122,0,0,0,1.2-.9,20.9,20.9,0,0,0,.378-4.016h-3.5a33.423,33.423,0,0,1-.452,4.382,19.09,19.09,0,0,1-1.953,5.847q-.256.476-.415.476-.183,0-.5-.4a7.429,7.429,0,0,0-1.55-1.4,13.655,13.655,0,0,0,1.941-5.53,42.677,42.677,0,0,0,.354-6.042l-.049-5.017q0-.22.061-.269a.492.492,0,0,1,.244-.037l3.345.049h6.653v-.525a30.1,30.1,0,0,0-.208-3.528q2.136.11,2.7.183.378.037.378.293a1.4,1.4,0,0,1-.122.476,6.786,6.786,0,0,0-.134,1.733q0,.415.012.769v.6h3.748l3.32-.049q.2,0,.244.061a.456.456,0,0,1,.037.232v1.917q0,.2-.049.232a.456.456,0,0,1-.232.037l-3.32-.049h-3.674a31.564,31.564,0,0,0,1.025,7.068,21.708,21.708,0,0,0,1.5-2.93,12.9,12.9,0,0,0,.671-2.295,12.564,12.564,0,0,1,2.319.891q.378.183.378.4,0,.122-.354.525a4.538,4.538,0,0,0-.623,1.233,28.366,28.366,0,0,1-2.844,5.066A9.2,9.2,0,0,0,465-2.063q.684.732,1.135.732t.708-.769A11.966,11.966,0,0,0,467.161-4.395ZM464.841-20.63a11.472,11.472,0,0,1,2.148,2.1.413.413,0,0,1,.1.22q0,.122-.22.256l-1.208.9a.994.994,0,0,1-.317.171q-.073,0-.208-.171a9.724,9.724,0,0,0-2.026-2.2q-.146-.146-.146-.232,0-.061.208-.22l1.147-.806a.617.617,0,0,1,.293-.134A.442.442,0,0,1,464.841-20.63Zm21.882,4.077L483.5-16.5a.386.386,0,0,1-.244-.049.578.578,0,0,1-.037-.256v-1.624q0-.2.049-.232a.456.456,0,0,1,.232-.037l3.223.049h5.652v-.122A10.522,10.522,0,0,0,492.192-21q1.6.037,2.7.171.4.037.4.269a1.543,1.543,0,0,1-.146.452A3.837,3.837,0,0,0,495-18.8v.146h6.116l3.235-.049q.2,0,.232.049a.42.42,0,0,1,.037.22v1.624a.445.445,0,0,1-.049.269.42.42,0,0,1-.22.037l-3.235-.049H495v1.331h2.747l3.43-.049q.2,0,.232.049a.42.42,0,0,1,.037.22l-.049,2.454v4.468l.049,2.49q0,.244-.269.244l-3.43-.049h-7.8l-3.418.049a.445.445,0,0,1-.269-.049.319.319,0,0,1-.037-.2l.049-2.49v-4.468L486.223-15q0-.2.049-.232a.578.578,0,0,1,.256-.037l3.418.049h2.429v-1.331Zm12.195,9.534v-1.16H488.726v1.16ZM488.726-9.8h10.193v-1.123H488.726Zm10.193-3.772H488.726v1.123h10.193ZM486.248-2.2l-3.149.049q-.208,0-.244-.061a.456.456,0,0,1-.037-.232V-4.1q0-.2.049-.232a.456.456,0,0,1,.232-.037l3.149.049h15.32l3.149-.049a.386.386,0,0,1,.244.049A.42.42,0,0,1,505-4.1v1.66a.431.431,0,0,1-.043.244q-.043.049-.238.049L501.567-2.2h-3.955a17.275,17.275,0,0,0,7.153,2,7.859,7.859,0,0,0-.928,1.575,1.741,1.741,0,0,1-.305.537.493.493,0,0,1-.342.11,3.3,3.3,0,0,1-.5-.049,19.009,19.009,0,0,1-7.08-2.747q-.159-.1-.159-.159t.244-.244L496.99-2.2H490.5q.269.159.708.476l.61.427q.33.22.33.427,0,.244-.378.342a10.622,10.622,0,0,0-.977.427,21.256,21.256,0,0,1-5.847,2,3.951,3.951,0,0,1-.574.073q-.244,0-.549-.647a6.052,6.052,0,0,0-1-1.477,20.166,20.166,0,0,0,6.274-1.575,5.741,5.741,0,0,0,.781-.476Z" transform="translate(-0.72 21.045)" fill="#fff"/>
</svg>
